<?xml version="1.0" encoding="UTF-8" standalone="no"?>
<svg
   xmlns:dc="http://purl.org/dc/elements/1.1/"
   xmlns:cc="http://creativecommons.org/ns#"
   xmlns:rdf="http://www.w3.org/1999/02/22-rdf-syntax-ns#"
   xmlns:svg="http://www.w3.org/2000/svg"
   xmlns="http://www.w3.org/2000/svg"
   xmlns:sodipodi="http://sodipodi.sourceforge.net/DTD/sodipodi-0.dtd"
   xmlns:inkscape="http://www.inkscape.org/namespaces/inkscape"
   version="1.1"
   id="svg2"
   width="1600"
   height="1401"
   viewBox="0 0 1600 1401"
   sodipodi:docname="loro.svg"
   inkscape:version="1.0.2 (e86c870879, 2021-01-15, custom)">
  <metadata
     id="metadata8">
    <rdf:RDF>
      <cc:Work
         rdf:about="">
        <dc:format>image/svg+xml</dc:format>
        <dc:type
           rdf:resource="http://purl.org/dc/dcmitype/StillImage" />
        <dc:title></dc:title>
      </cc:Work>
    </rdf:RDF>
  </metadata>
  <defs
     id="defs6" />
  <sodipodi:namedview
     pagecolor="#ffffff"
     bordercolor="#666666"
     borderopacity="1"
     objecttolerance="10"
     gridtolerance="10"
     guidetolerance="10"
     inkscape:pageopacity="0"
     inkscape:pageshadow="2"
     inkscape:window-width="1366"
     inkscape:window-height="739"
     id="namedview4"
     showgrid="false"
     inkscape:snap-global="false"
     inkscape:zoom="0.28667855"
     inkscape:cx="967.81121"
     inkscape:cy="792.76495"
     inkscape:window-x="0"
     inkscape:window-y="0"
     inkscape:window-maximized="1"
     inkscape:current-layer="g10" />
  <g
     inkscape:groupmode="layer"
     inkscape:label="Image"
     id="g10">
    <g
       id="g1467">
      <circle
         style="fill:#ffffff;fill-opacity:1"
         id="path1413"
         cx="796.00354"
         cy="709.065"
         r="699.84827" />
      <g
         id="g1411"
         transform="matrix(0.6923845,0,0,0.6923845,205.19096,237.30036)">
        <path
           style="fill:#dcbb30;fill-opacity:1"
           d="m 775.28247,1394.4845 c -9.5035,-2.9245 -15.4524,-13.849 -14.5934,-26.7993 0.9276,-13.9858 9.5823,-29.368 32.7013,-58.121 6.6335,-8.25 12.0636,-15.341 12.0668,-15.7577 0,-0.4167 -5.2815,1.8892 -11.744,5.1243 -41.2822,20.6656 -70.4736,28.8481 -82.8559,23.2248 -8.7082,-3.9546 -10.8532,-16.3945 -4.9447,-28.6763 3.6994,-7.6899 20.6494,-24.645 33.0506,-33.0606 19.3931,-13.1603 43.4911,-26.3747 59,-32.3534 3.3,-1.2721 6.3323,-2.5975 6.7384,-2.9454 0.4061,-0.3478 -2.3788,-3.7257 -6.1886,-7.5063 l -6.9269,-6.8738 -9.8114,1.1665 c -59.2224,7.041 -130.4955,1.8191 -165.6447,-12.1362 -21.225,-8.4269 -28.9146,-17.0594 -24.1466,-27.1071 6.6018,-13.9125 44.5625,-28.7939 103.4047,-40.537 8.4837,-1.6931 15.6173,-3.2707 15.8525,-3.5059 0.2352,-0.2351 -2.881,-2.0856 -6.9249,-4.1122 -17.7085,-8.8744 -34.0806,-21.9349 -39.1327,-31.2172 -1.4704,-2.7016 -3.1827,-7.2863 -3.805,-10.1882 l -1.1315,-5.2761 -9.6417,-4.4821 c -5.3029,-2.4652 -15.2666,-7.0867 -22.1416,-10.27 -27.0877,-12.5424 -73.7449,-28.8309 -147.5,-51.4937 -89.6263,-27.53968 -117.5268,-38.49063 -130.1007,-51.06451 -5.0542,-5.05414 -6.9381,-10.37321 -5.9672,-16.84762 2.2664,-15.11318 19.4914,-18.13696 54.5368,-9.57369 16.2934,3.98125 40.5759,12.20047 63.8366,21.60761 10.282,4.15826 19.3308,7.81724 20.1085,8.13107 3.2902,1.32767 -0.5086,-2.10957 -7.6789,-6.94803 -26.6583,-17.98886 -57.9643,-44.65808 -65.141,-55.49292 -12.2916,-18.55695 -4.6611,-28.37505 17.4735,-22.48297 22.301,5.93634 61.0315,26.91261 106.4324,57.64327 12.375,8.37631 24.9788,16.62465 28.0085,18.32965 7.2521,4.0813 13.7633,6.36 14.5475,5.09115 0.3343,-0.54096 -4.6165,-5.97251 -11.0017,-12.07011 -12.8429,-12.26424 -27.0823,-28.30889 -33.4643,-37.70684 -12.8881,-18.97847 -10.4164,-29.52282 6.8772,-29.33909 12.027,0.12778 29.0681,4.94164 50.9292,14.38675 6.382,2.75734 15.0116,6.47208 19.1769,8.25499 20.8134,8.90894 60.8749,33.71504 90.8035,56.2256 4.6073,3.4653 8.733,6.08043 9.1683,5.81139 0.4354,-0.26904 2.9297,-3.52283 5.543,-7.23064 12.7201,-18.04738 33.8912,-40.58137 51.6069,-54.92906 11.3722,-9.21014 11.82,-9.72481 16.2199,-18.64202 5.855,-11.86627 6.6185,-16.35745 3.414,-20.08289 -2.2396,-2.60369 -3.3551,-2.88856 -20.0437,-5.11852 -61.8036,-8.25829 -122.3552,-22.72642 -163.7432,-39.12456 -95.087,-37.67407 -138.8475,-95.73282 -147.9901,-196.34442 -0.5748,-6.325 -1.0466,-15.18594 -1.0485,-19.69098 0,-4.50504 -0.3409,-8.39749 -0.7534,-8.64988 -0.4125,-0.2524 -4.35,2.20475 -8.75,5.46033 -26.6398,19.71093 -62.4402,37.92336 -96.0229,48.84899 -52.2352,16.99396 -104.3036,20.48259 -163.7367,10.97051 -46.374,-7.42201 -97.318004,-22.84173 -145.663504,-44.08941 -16.4102,-7.21222 -46.8935998,-22.77518 -49.6945,-25.37101 -2.2214,-2.05864 -2.2581,-2.27436 -0.6217,-3.64869 0.9566,-0.80338 14.3393002,-5.87885 29.7393,-11.27883 32.8575,-11.52142 72.7273,-26.3458 108.781904,-40.44729 53.7439,-21.01999 87.8926,-31.04768 119.7181,-35.15496 5.225,-0.67432 10.0706,-1.52357 10.768,-1.88722 0.7677,-0.40031 -10.2796,-8.39281 -28,-20.25741 -67.166,-44.97064 -84.3337,-58.03105 -105.6501,-80.37395 -21.8431,-22.895 -53.083004,-64.75161 -51.468304,-68.95955 0.8297,-2.16208 13.3754,-2.8203 53.350404,-2.79906 90.7568,0.0482 152.1293,9.93869 197.5,31.82801 30.1894,14.565 61.154,37.82788 83.9379,63.0601 15.0565,16.67453 29.9559,37.35001 39.03,54.16096 2.879,5.33357 4.5321,5.99723 4.5321,1.81943 0,-3.66519 7.6714,-42.06277 12.557,-62.85142 25.5353,-108.65478 57.446,-180.70667 108.2593,-244.44129 14.8293,-18.60025 50.1541,-54.42511 69.6837,-70.670249 17.6773,-14.704277 41.073,-32.200018 53.6202,-40.09815 44.0505,-27.728593 104.4355,-48.30778 171.3798,-58.4062566 45.8163,-6.911342 136.94473,-8.087312 193.00003,-2.490579 27.2473,2.720452 73.4818,10.585033 81.5,13.8632976 1.925,0.787047 11.6,3.689922 21.5,6.450834 51.3967,14.333506 107.1934,37.518069 167.0461,69.410729 5.5253,2.944187 11.0712,5.621156 12.3242,5.948819 1.253,0.327663 2.4962,1.416646 2.7627,2.419966 0.2665,1.00331 5.9551,5.424209 12.6413,9.824209 128.6408,84.65514 200.5081,194.40751 221.1594,337.74439 3.0604,21.24191 3.3368,23.93811 4.6897,45.75561 0.5969,9.625 1.3016,18.175 1.566,19 0.4389,1.36953 0.6585,63.67258 0.2265,64.25 -0.1029,0.1375 -0.7981,9.7 -1.5449,21.25 -1.8471,28.56815 -2.1276,31.9851 -3.8998,47.5 -4.3485,38.06951 -9.1766,71.69087 -14.0011,97.5 -0.8225,4.4 -1.9566,10.7 -2.5203,14 -3.4054,19.93668 -10.3108,52.62024 -12.4656,59 -6.051,17.91526 -20.5412,34.38644 -30.3314,34.47804 -1.5707,0.0147 -3.8541,-1.65399 -6.902,-5.04395 -16.8556,-18.74757 -55.2511,-30.95073 -114.7508,-36.47106 -3.85,-0.3572 -8.29,-0.79864 -9.8666,-0.98099 -9.0263,-1.04392 -60.4028,-2.74725 -86.1334,-2.85565 -29.3438,-0.12363 -30.0022,-0.0826 -30.1019,1.87361 -0.056,1.1 -0.1686,2.52992 -0.25,3.1776 -0.082,0.64767 -2.9606,2.86862 -6.3981,4.93542 -3.4375,2.06681 -8.2307,5.47869 -10.6516,7.58196 -6.657,5.7835 -25.5975,17.16139 -44.7225,26.86553 -9.4182,4.77888 -17.7233,8.88863 -18.4558,9.13278 -0.976,0.32535 -0.2328,2.56232 2.7828,8.37531 7.4289,14.32046 13.8684,37.05924 17.9634,63.4314 2.4378,15.69981 2.4007,52.14008 -0.072,70.5 -9.4782,70.38271 -35.5163,134.49351 -74.4216,183.24041 -4.4952,5.6323 -8.173,10.4068 -8.173,10.61 0,0.2032 7.3125,0.6253 16.25,0.9381 24.3605,0.8524 43.4697,4.9727 59.3836,12.8042 17.8146,8.7669 23.3856,20.0819 14.2266,28.8951 -5.1113,4.9184 -23.3689,10.9795 -33.2172,11.0275 -1.7286,0.01 -3.8028,0.4326 -4.6091,0.9426 -1.1681,0.7388 -0.8745,1.1522 1.4443,2.0338 40.8433,15.5286 72.0694,42.9567 73.2922,64.3777 0.4522,7.9211 -1.745,12.2507 -7.8444,15.4579 -3.8983,2.0497 -5.4394,2.2729 -12.926,1.8715 -9.6361,-0.5166 -14.2134,-2.1177 -69.3239,-24.2492 -17.0539,-6.8486 -31.2067,-12.2524 -31.4507,-12.0084 -0.244,0.244 0.5295,1.8102 1.7188,3.4804 4.7376,6.6534 8.3614,16.3574 8.4603,22.656 0.081,5.1639 -0.3153,6.6163 -2.6373,9.6607 -8.1635,10.7036 -26.6829,8.5698 -58.5399,-6.7449 -23.604,-11.3473 -47.5785,-25.4473 -75.017,-44.1195 l -15.28973,-10.4048 -6.2103,1.0079 c -3.4157,0.5543 -7.7853,1.0182 -9.7103,1.0308 -6.779,0.044 -6.8756,1.1873 -0.7419,8.7789 12.4698,15.4336 25.79833,39.5788 29.17803,52.8576 4.0352,15.854 0.5861,27.7422 -9.81783,33.8392 -23.1407,13.5614 -57.9478,-8.1944 -91.168,-56.9835 -3.7449,-5.5 -6.9989,-10.225 -7.231,-10.5 -0.5526,-0.6548 -1.834,1.1796 -10.8276,15.5 -10.6041,16.8848 -25.9145,36.8429 -36.7022,47.8438 -25.6963,26.204 -55.0551,39.1742 -74.8702,33.0765 z m -51.1519,-740.30002 c 5.0421,-1.0617 11.7921,-2.73587 15,-3.72037 l 5.8326,-1.79 -10.5,-0.76059 c -23.7531,-1.72061 -43.0916,-10.82789 -59.5792,-28.05835 -16.0192,-16.7409 -25.7626,-36.56638 -30.0553,-61.15529 -2.1458,-12.29158 -1.375,-37.64044 1.4941,-49.13569 6.0428,-24.21102 15.9929,-42.52375 31.5568,-58.07911 12.5544,-12.5474 27.8318,-21.6845 43.5836,-26.0663 9.2093,-2.56183 33.8174,-2.55752 43,0.008 48.6597,13.59254 80.6457,68.26337 72.5203,123.95275 -0.9481,6.49818 -1.5042,12.0345 -1.2358,12.30294 0.7977,0.79771 6.6783,-16.35495 9.2619,-27.01536 3.7427,-15.4435 4.7763,-24.78819 4.7118,-42.60246 -0.1636,-45.19121 -16.0489,-83.92408 -47.1918,-115.0669 -29.3765,-29.37654 -62.6081,-43.33608 -103.0664,-43.29497 -24.6619,0.0251 -43.5361,4.58387 -65.831,15.90068 -46.1662,23.43371 -78.2301,69.4855 -85.7323,123.13309 -2.2402,16.0202 -1.5053,43.52577 1.5453,57.82764 12.4682,58.45508 51.6584,103.26489 104.8823,119.9219 7.4062,2.31785 18.5988,4.60469 29.1357,5.95291 7.5711,0.96875 31.717,-0.36985 40.6674,-2.25452 z m 10.9931,-132.67327 c 6.0505,-2.93883 11.7057,-8.83682 14.6938,-15.32462 3.2108,-6.9712 2.9448,-18.88353 -0.5721,-25.6224 -9.6993,-18.58517 -33.3965,-23.11441 -48.4305,-9.2565 -14.4605,13.32923 -12.8664,36.73806 3.2572,47.83143 9.1137,6.27041 21.1351,7.18874 31.0516,2.37209 z"
           id="path1321" />
        <path
           style="fill:#e8cc4c"
           d="m 775.23717,1394.8793 c -7.8701,-2.0918 -15.774,-14.0905 -15.774,-23.9462 0,-15.088 10.6497,-33.7896 38.9034,-68.3175 4.0328,-4.9284 6.8704,-9.1147 6.3058,-9.3029 -0.5646,-0.1882 -6.8503,2.5761 -13.9682,6.1428 -26.0649,13.0612 -48.7025,21.4316 -63.9514,23.6467 -14.4118,2.0934 -21.6585,-1.2547 -24.35,-11.2503 -4.6149,-17.1384 13.7467,-38.4686 54.3186,-63.1007 11.8943,-7.2213 31.0568,-16.8181 41.5155,-20.7915 3.4506,-1.3109 6.1506,-2.8334 6,-3.3834 -0.1505,-0.55 -3.317,-3.8894 -7.0366,-7.4209 l -6.763,-6.421 -12.237,1.2152 c -34.8951,3.465 -58.4373,3.9122 -87.7371,1.6666 -47.2889,-3.6242 -80.3425,-12.2869 -94.5284,-24.7738 -21.2085,-18.6685 15.241,-39.6978 97.4055,-56.1974 9.5573,-1.9192 17.5756,-3.688 17.8182,-3.9307 0.2427,-0.2426 -4.4712,-2.9935 -10.4753,-6.1131 -24.2349,-12.5918 -40.22,-28.906 -40.22,-41.0481 0,-3.0953 -2.0639,-4.5313 -15,-10.4368 -6.325,-2.8875 -15.55,-7.1871 -20.5,-9.5547 -21.5625,-10.3136 -76.0112,-29.1968 -147,-50.9808 -84.8181,-26.02772 -112.2533,-36.61299 -125.7999,-48.53725 -6.1203,-5.38725 -7.7001,-8.56066 -7.7001,-15.46719 0,-6.90683 1.8261,-10.61134 6.7222,-13.63732 5.1823,-3.20287 20.2809,-3.80803 34.0493,-1.36471 19.7389,3.50283 48.7433,12.90821 83.0834,26.94186 8.9952,3.67604 16.5623,6.47635 16.8157,6.22292 0.5183,-0.51831 -0.735,-1.46504 -19.6706,-14.85931 -36.7666,-26.00717 -58.0431,-46.86771 -60.8783,-59.68825 -2.7508,-12.43904 7.502,-15.78411 28.094,-9.16588 5.3436,1.71743 17.7186,7.13393 27.5,12.03668 25.5889,12.826 43.9853,24.02278 83.7528,50.97544 18.8576,12.78078 32.5315,19.50872 32.5315,16.00633 0,-0.68698 -8.2125,-9.6432 -18.25,-19.90271 -19.1159,-19.53871 -28.4183,-31.28524 -32.3539,-40.85436 -3.4184,-8.31189 -2.8525,-13.19556 1.8711,-16.14547 8.2989,-5.18273 34.7632,0.4198 64.0058,13.55009 5.6249,2.52562 12.3954,5.4553 15.0457,6.5104 18.8562,7.50675 59.1854,32.01454 88.4588,53.75583 6.7526,5.01515 12.6784,9.11846 13.1684,9.11846 0.4901,0 1.8427,-1.5399 3.0059,-3.422 10.9371,-17.69658 41.0404,-49.63578 59.2884,-62.90419 4.9338,-3.58743 6.4455,-5.53435 10.7601,-13.85801 7.3419,-14.16365 7.7207,-21.11426 1.2879,-23.6334 -1.5335,-0.60055 -12.4915,-2.44847 -24.351,-4.10651 -49.5542,-6.92795 -97.8132,-17.69444 -135.3605,-30.19868 -114.1789,-38.02452 -164.7589,-103.13006 -170.2383,-219.12721 -0.3572,-7.5625 -0.9624,-13.75 -1.3448,-13.75 -0.3824,0 -3.6711,2.25271 -7.3081,5.00602 -3.6371,2.75331 -11.0167,7.85136 -16.3992,11.329 -42.6813,27.57653 -90.103,45.13415 -141.3955,52.3509 -17.8625,2.51324 -63.983,2.5024 -83.3908,-0.0196 -52.3034,-6.79671 -102.6017,-20.66497 -156.499996,-43.15022 -16.7624,-6.99294 -54.9335,-25.87384 -57.9047,-28.64193 -4.1608,-3.87642 -5.5878,-3.16294 34.4047,-17.20259 31.4926,-11.05571 55.2186,-19.89949 98.999996,-36.90185 40.9696,-15.91042 62.4685,-23.27526 84,-28.77575 14.617,-3.73408 42.9399,-8.99398 48.4297,-8.99398 1.5053,0 3.0215,-0.2845 3.3692,-0.63222 0.3477,-0.34773 -11.7088,-8.88062 -26.7922,-18.96198 -73.0758,-48.84188 -90.2265,-62.03415 -112.469,-86.51086 -16.194,-17.82067 -37.767996,-46.02833 -45.532696,-59.53347 -2.9853,-5.1922 -1.8412,-6.07464 8.9216,-6.88156 16.1199,-1.20856 98.129696,0.15887 116.073396,1.9354 59.1963,5.86078 93.9561,14.35093 127,31.02003 49.0916,24.76439 91.3597,64.93523 117.8397,111.99252 3.1674,5.62885 5.7911,9.30956 6.0588,8.5 0.2597,-0.78532 0.9966,-4.80286 1.6376,-8.92786 3.5541,-22.87359 13.8963,-68.42801 22.93,-101 36.8039,-132.70066 92.8113,-216.88516 195.6805,-294.126851 18.6754,-14.022897 31.4333,-22.02686 50.8534,-31.904308 45.8404,-23.31528 111.0022,-41.2341977 170.5,-46.88601 46.8464,-4.450032 137.20893,-3.523527 178.50003,1.8301973 30.5937,3.966721 68.3054,10.8799447 70.9213,13.0011377 0.5933,0.481073 7.2908,2.503056 14.8833,4.493297 50.6813,13.285188 116.2423,40.412492 176.2643,72.933297 4.438,2.404527 8.713,4.59992 9.5,4.87865 0.7871,0.27873 1.1492,0.81279 0.8047,1.1868 -0.3446,0.37401 -6.8696,-0.43982 -14.5,-1.8085 -24.4756,-4.39022 -32.0433,-5.063303 -56.8736,-5.058423 -27.0736,0.0053 -39.0235,1.373626 -61,6.984713 -31.7946,8.11785 -60.9752,23.51877 -92.9837,49.07482 -13.2766,10.60018 -35.5185,32.156 -47.637,46.16754 -8.2579,9.54791 -10.0389,12.23364 -8.1122,12.23364 0.4219,0 7.9594,0.45973 16.75,1.02163 204.9116,13.09795 379.1524,146.28162 445.0135,340.15304 16.8668,49.6497 24.9461,95.74789 26.1712,149.32533 1.0104,44.18449 -3.7071,88.29794 -13.8486,129.5 -4.0187,16.32702 -5.0608,18.46579 -9.9505,20.42225 -5.7523,2.30162 -7.4938,1.98041 -10.4785,-1.93269 -1.4726,-1.93075 -5.433,-5.58207 -8.8009,-8.11406 -24.849,-18.68182 -71.2032,-28.89148 -146.9561,-32.36753 -30.4984,-1.39947 -82.8749,-2.42363 -85.8435,-1.67857 -2.0826,0.52269 -2.4634,1.10431 -2.0702,3.16132 0.6152,3.21819 -0.7214,4.77199 -7.3838,8.58383 -2.9678,1.69798 -7.6034,4.96334 -10.3014,7.25635 -7.69,6.53559 -23.9261,16.27803 -44.0683,26.4431 -10.175,5.13497 -18.6371,9.72264 -18.8046,10.19483 -0.1675,0.47219 1.4609,4.38488 3.6186,8.69485 11.9691,23.90831 19.3161,60.3717 19.31,95.83632 0,23.35648 -1.7806,40.82974 -6.609,64.99994 -11.7824,58.9816 -36.573,113.9335 -70.3766,156 l -8.0358,10 15.1987,0.6555 c 26.9539,1.1626 50.5858,6.7279 65.3774,15.3963 25.278,14.814 16.1704,31.94 -19.5288,36.722 -5.0687,0.6789 -9.2216,1.6179 -9.2288,2.0867 -0.01,0.4687 4.9183,2.9806 10.9453,5.5818 30.0591,12.9736 52.4678,30.8519 61.4216,49.0038 3.9932,8.0953 4.4747,17.1664 1.1535,21.7272 -2.99,4.1057 -9.9181,7.3267 -15.759,7.3267 -8.968,0 -19.851,-3.8193 -79.6226,-27.9432 -12.3421,-4.9812 -23.0602,-9.0568 -23.8181,-9.0568 -1.034,0 -0.8934,0.6864 0.5634,2.75 7.9922,11.3207 11.3174,25.1531 7.6733,31.9199 -3.9097,7.2598 -12.7375,9.5777 -25.9785,6.821 -21.4575,-4.4672 -59.2228,-23.823 -101.701,-52.1247 l -21.70103,-14.4586 -10.799,1.2018 c -5.9394,0.661 -11.1786,1.5339 -11.6426,1.9397 -0.4639,0.4059 0.7179,2.4734 2.6262,4.5945 10.6723,11.8617 23.9298,33.954 29.42413,49.0321 3.0496,8.3691 3.5957,11.1574 3.6866,18.8243 0.1161,9.7942 -0.8497,12.6547 -6.05043,17.9194 -1.5636,1.5828 -5.2513,3.99 -8.195,5.3493 -4.6979,2.1693 -6.3767,2.4176 -13.7348,2.0314 -7.5156,-0.3945 -9.3412,-0.918 -17.6479,-5.0611 -18.9896,-9.4714 -36.945,-27.3276 -56.993,-56.6784 -6.1429,-8.9934 -7.279,-10.1937 -8.2014,-8.6652 -7.754,12.8486 -19.4202,30.3895 -26.3404,39.6046 -11.108,14.7918 -31.2773,35.036 -41.7304,41.8854 -20.2098,13.2425 -38.3475,18.4734 -51.726,14.9176 z m -55.774,-739.70108 c 5.775,-1.0094 13.875,-2.88576 18,-4.16969 l 7.5,-2.33442 -10.3027,-0.78517 c -16.5526,-1.26145 -27.8503,-4.69975 -41.2968,-12.56805 -23.1212,-13.52957 -39.9517,-37.62069 -47.6768,-68.24453 -2.3525,-9.32611 -2.6529,-12.45648 -2.6862,-28 -0.04,-18.74973 1.1942,-27.28948 6.0415,-41.79634 11.834,-35.41653 38.456,-62.21495 70.921,-71.39091 11.5077,-3.25255 32.5143,-3.24931 44,0.007 36.1501,10.24822 63.5593,42.93607 71.0094,84.68484 2.0804,11.65809 2.1059,31.34129 0.057,43.88769 -0.8886,5.44064 -1.4432,10.06438 -1.2326,10.27498 0.7011,0.70116 7.6348,-18.52051 10.0677,-27.91014 4.1722,-16.10194 5.074,-24.18296 4.9949,-44.75691 -0.066,-17.03187 -0.4087,-21.09499 -2.7114,-32.10155 -10.6894,-51.09387 -41.3077,-91.56371 -85.0827,-112.45801 -12.8286,-6.12325 -20.1633,-8.63768 -34.1022,-11.69072 -14.4205,-3.1585 -42.4684,-3.12229 -57.2562,0.0739 -47.0067,10.15991 -86.3166,41.69839 -107.7738,86.46713 -26.3338,54.94363 -22.0179,118.73973 11.3825,168.25143 23.9483,35.5002 59.423,58.3947 100.6475,64.95535 12.1907,1.9401 33.1808,1.75756 45.5,-0.39569 z m 13.7705,-133.09846 c 7.21,-3.10168 14.3226,-10.99068 16.6874,-18.50894 4.9541,-15.7503 -3.1291,-32.82906 -18.2369,-38.53209 -7.2931,-2.75308 -17.6877,-2.36714 -24.4531,0.90792 -13.3292,6.45257 -20.4824,22.28041 -16.4062,36.302 5.3236,18.31254 24.7846,27.41284 42.4088,19.83111 z"
           id="path1317" />
        <path
           style="fill:#dcbb30;fill-opacity:1"
           d="m 780.02207,1397.2958 c -3.3146,-0.6511 -10.1214,-4.9955 -12.7992,-8.1691 -6.3387,-7.5123 -6.888,-21.1303 -1.3827,-34.2807 4.3588,-10.4119 12.1856,-21.9627 29.5471,-43.6057 8.0577,-10.0448 14.3809,-18.6994 14.0515,-19.2325 -0.335,-0.542 -6.6384,2.0529 -14.3008,5.8872 -42.8679,21.451 -72.7284,30.0888 -84.2018,24.3571 -7.5883,-3.7907 -9.1448,-15.3004 -3.6014,-26.6307 3.3854,-6.9195 15.5958,-19.6373 26.9077,-28.0258 17.0558,-12.648 42.1086,-26.7998 62.1937,-35.1319 5.9569,-2.4712 10,-4.7168 10,-5.5542 0,-0.7732 -3.3851,-4.5937 -7.5226,-8.4899 l -7.5225,-7.0841 -10.9775,1.2691 c -41.3438,4.7799 -85.8043,3.9979 -124.9774,-2.1982 -27.321,-4.3214 -51.8003,-13.4583 -59.81,-22.3241 -6.5751,-7.2778 -4.5486,-14.3807 6.2675,-21.9678 15.0561,-10.5612 47.8446,-21.28 92.0425,-30.0893 8.525,-1.6992 16.5125,-3.3077 17.75,-3.5745 4.0139,-0.8654 2.3994,-2.9891 -4.9441,-6.5038 -24.7687,-11.8545 -41.0863,-26.6141 -43.9034,-39.7113 -0.6781,-3.1525 -1.6077,-6.2269 -2.0657,-6.8319 -0.458,-0.605 -7.6962,-4.1736 -16.0848,-7.9301 -8.3886,-3.7565 -16.722,-7.9026 -18.5186,-9.2135 -4.0405,-2.9482 -12.0945,-6.2979 -37.7334,-15.6935 -33.5207,-12.2841 -56.9881,-19.9671 -123.5,-40.4328 -56.8646,-17.49713 -77.8059,-24.92984 -95.1577,-33.77436 -18.3755,-9.36627 -22.8249,-14.01979 -22.8357,-23.8832 -0.012,-10.81205 5.2214,-14.4142 20.9934,-14.45038 21.9891,-0.0504 58.7252,10.74392 109.9698,32.31297 8.5083,3.58121 15.8208,6.2943 16.25,6.02908 2.1601,-1.33506 -0.3139,-3.71606 -12.3165,-11.8535 -49.3086,-33.42966 -74.9033,-57.9078 -74.9033,-71.6356 0,-5.5886 1.9092,-6.87508 10.2027,-6.87508 9.5682,0 20.6827,3.87583 42.7973,14.9242 22.9955,11.48843 39.9319,21.6433 71.5,42.87052 27.6889,18.61875 40.0179,25.46708 44.9918,24.9914 5.9169,-0.56586 4.3141,-3.14052 -12.1676,-19.54509 -18.9053,-18.81682 -28.9359,-30.9727 -34.3325,-41.60683 -5.5004,-10.83868 -5.2101,-15.31662 1.1364,-17.52902 9.776,-3.40792 31.6884,1.80723 60.3719,14.3685 7.15,3.13118 14.6287,6.03437 16.6194,6.45153 10.3458,2.16805 56.1853,29.94988 87.0146,52.73666 6.9487,5.13597 13.2854,9.33813 14.0816,9.33813 0.7961,0 2.8406,-2.1375 4.5432,-4.75 10.7748,-16.53323 37.1015,-44.89622 54.2412,-58.43648 11.3716,-8.98351 10.7997,-8.32087 15.8055,-18.31352 5.561,-11.10117 6.6338,-15.51279 4.825,-19.84184 -1.8154,-4.34497 -6.478,-6.11942 -20.1305,-7.66105 -14.8419,-1.67595 -44.4158,-6.62046 -66.5,-11.11823 -68.5652,-13.96433 -118.6929,-32.28197 -156.5,-57.1882 -48.1546,-31.72286 -76.2519,-77.12093 -86.4613,-139.69909 -1.8078,-11.08136 -2.7393,-20.66647 -4.6393,-47.74159 -0.3184,-4.5375 -1.0087,-8.25 -1.534,-8.25 -0.5253,0 -5.2157,3.055 -10.4231,6.78888 -49.7669,35.68445 -107.9511,57.74286 -166.9396,63.28901 -18.4375,1.73352 -59.1556,0.69984 -78.3571,-1.98919 -62.6546,-8.77433 -128.1974,-29.73242 -188.1456,-60.16182 -20.8657,-10.59131 -22.6556,-11.7338 -20.8924,-13.33569 0.7658,-0.69576 13.9924,-5.6741 29.3924,-11.06297 33.495,-11.72078 63.4015,-22.82919 108.5,-40.30096 57.8949,-22.42928 83.8767,-30.12327 118.9717,-35.23111 13.6732,-1.99004 15.9356,-2.49831 14.945,-3.35755 -0.2292,-0.19878 -10.0917,-6.80205 -21.9167,-14.67395 -77.005,-51.2622 -97.1217,-66.76406 -120.4544,-92.82165 -18.2917,-20.42801 -44.5655,-55.96909 -44.5511,-60.26519 0.01,-2.34976 3.8221,-2.72974 35.0055,-3.48736 54.5774,-1.32599 113.9676,3.32521 154.5815,12.10621 36.9572,7.99038 61.6973,18.3785 92.1344,38.68623 36.0561,24.05677 70.0422,61.00719 89.859,97.69656 2.1153,3.9163 4.1606,7.12055 4.5452,7.12055 0.3846,0 1.2289,-3.2625 1.8762,-7.25 3.9734,-24.4748 13.7006,-68.25844 21.6054,-97.25 25.6966,-94.24327 58.2579,-160.33928 107.426,-218.06297 11.5889,-13.60543 40.013,-42.07782 53.9723,-54.06392 13.9855,-12.0086 32.1252,-26.34522 45,-35.56546 60.3074,-43.1889 145.8328,-69.19389 244.5,-74.34304 71.2783,-3.7198 135.29633,0.24535 195.27253,12.09478 9.4999,1.87688 18.6908,4.14596 20.4243,5.0424 1.7336,0.89644 11.0609,3.85211 20.7276,6.56815 31.4301,8.831 67.4056,21.94512 102.5756,37.39179 13.3826,5.87763 61.219,29.66272 64,31.82186 1.8694,1.45137 1.8799,1.55488 0.161,1.5846 -1.0114,0.0175 -7.3114,-0.9807 -14,-2.2182 -10.8959,-2.01593 -15.2819,-2.24851 -42.161,-2.23572 -26.7175,0.0127 -31.3677,0.26077 -42.5,2.26714 -41.8253,7.53815 -75.3237,23.48972 -113.5,54.04738 -20.2343,16.19626 -55.2873,52.04479 -58.8359,60.17121 -0.6005,1.375 -2.944,4.975 -5.2079,8 -27.0279,36.11412 -51.38513,80.77689 -80.16453,146.99395 -22.7523,52.34987 -39.4991,103.57533 -53.2902,163.00605 -12.2915,52.9678 -12.6652,54.35808 -24.6932,91.85387 -5.4531,16.99944 -6.3049,20.5592 -5.1687,21.59982 0.7482,0.68527 4.1825,2.27197 7.6317,3.526 3.4491,1.25403 6.5336,2.70464 6.8543,3.22358 0.3644,0.5895 -5.7409,0.63458 -16.2712,0.12013 -32.1478,-1.57054 -47.3219,-0.58124 -66.3544,4.32609 -20.3451,5.24577 -35.8113,15.85367 -41.4572,28.43455 -7.7943,17.36805 1.4582,36.21372 32.6079,66.41596 28.4141,27.54992 96.9015,78.77581 131.5039,98.35986 32.7919,18.55934 69.17743,30.44322 109.34543,35.71337 22.737,2.98317 51.4079,0.96623 74,-5.20574 11.6362,-3.17892 30.9369,-9.81717 40.8997,-14.06702 27.6625,-11.79999 70.9184,-36.34875 69.8243,-39.627 -0.2946,-0.8829 -18.1993,-1.18451 -72.3078,-1.21806 -46.9913,-0.0291 -77.1149,-0.46446 -86.9162,-1.25604 -69.6184,-5.62262 -106.51773,-14.39379 -146.71453,-34.87486 -34.0918,-17.37049 -64.1614,-44.5862 -78.4085,-70.96685 -5.0651,-9.37865 -6.2332,-10.60971 -9.3332,-9.83644 -3.9259,0.97925 -8.8263,5.16736 -12.3463,10.55173 -1.7586,2.69011 -3.5922,4.8992 -4.0747,4.90908 -1.9225,0.0394 0.1518,-10.08295 3.0153,-14.71456 5.1786,-8.37618 14.2824,-11.40473 27.9266,-9.2903 7.3972,1.14634 17.8948,5.66315 20.913,8.99823 1.8058,1.99529 1.783,2.02435 -1.5727,2.00714 -1.8728,-0.01 -7.4043,-0.67293 -12.2924,-1.47407 -4.8881,-0.80113 -9.2756,-1.21672 -9.75,-0.92352 -2.0449,1.2638 -0.4335,4.77174 6.0025,13.06685 25.1104,32.36385 64.5256,59.60594 108.3283,74.87189 20.31,7.07838 36.74763,8.05205 159.80663,9.46611 78.0927,0.89735 102.66,1.72113 120,4.02378 16.3625,2.17285 21.7004,4.2327 19.0971,7.36945 -0.6313,0.76067 -4.0614,3.08696 -7.6225,5.16954 -3.561,2.08258 -6.4746,4.17624 -6.4746,4.65259 0,1.93156 -25.6544,17.45491 -45.1868,27.34233 -11.4473,5.79466 -20.8132,10.67733 -20.8132,10.85036 0,0.17302 2.2079,4.54179 4.9065,9.70837 11.1499,21.34714 18.7667,55.37566 19.802,88.46615 1.2104,38.69027 -5.3133,78.4216 -20.0199,121.9276 -14.1161,41.7591 -34.7593,79.7937 -59.1166,108.9216 -3.6434,4.3569 -6.4637,8.4069 -6.2674,9 0.2266,0.6845 6.7197,1.2991 17.7762,1.6827 32.6112,1.1313 60.1477,9.1322 72.0138,20.9239 6.3346,6.2949 6.9992,11.8266 2.0858,17.3609 -4.3197,4.8655 -18.779,9.3441 -36.6016,11.337 -3.8067,0.4256 -7.0909,1.2888 -7.2981,1.9181 -0.2131,0.6472 2.7935,2.3345 6.9212,3.8843 10.7331,4.0297 29.6502,13.636 38.1573,19.3765 22.0724,14.8943 34.6688,31.2218 34.6261,44.8825 -0.031,9.739 -5.2088,14.2125 -16.4517,14.2125 -3.9438,0 -9.6148,-0.7133 -12.6021,-1.5851 -2.9873,-0.8718 -25.1071,-9.4218 -49.155,-19 -24.048,-9.5782 -43.9605,-17.4149 -44.25,-17.4149 -1.4151,0 -0.2114,3.5977 2.5433,7.6015 8.1359,11.8251 10.8338,24.6613 6.4283,30.5854 -5.1579,6.9358 -17.3161,7.6002 -34.5221,1.8864 -23.4933,-7.8016 -72.4938,-35.3513 -107.50233,-60.4414 l -5.0264,-3.6023 -8.9736,1.0752 c -11.9954,1.4372 -15.7543,2.2371 -16.1546,3.4378 -0.184,0.5521 2.1015,3.9388 5.079,7.5259 12.6051,15.1862 26.73063,40.3658 30.05543,53.5758 1.9183,7.6215 1.9969,18.3702 0.1657,22.6378 -4.12623,9.6163 -16.67243,15.1035 -29.22703,12.7826 -20.8073,-3.8464 -44.7307,-24.8485 -69.821,-61.295 -3.6841,-5.3517 -7.1219,-9.992 -7.6395,-10.3119 -0.5175,-0.3199 -2.6264,2.1807 -4.6863,5.5567 -27.9604,45.8249 -51.9899,71.7422 -79.2478,85.4737 -4.6763,2.3557 -10.5263,4.8634 -13,5.5725 -2.4737,0.7092 -4.9476,1.6052 -5.4976,1.991 -1.3651,0.9577 -11.4397,1.8246 -14.4141,1.2404 z m -59.8501,-738.90522 c 9.7803,-1.61604 24.6262,-5.70008 28.6319,-7.87654 2.4253,-1.31774 1.8012,-1.43338 -7.934,-1.47027 -26.5095,-0.10045 -46.3933,-8.34764 -65.0097,-26.96404 -15.9409,-15.94092 -26.2386,-36.64858 -30.5537,-61.44031 -2.3622,-13.57169 -1.4252,-37.6904 1.9917,-51.26735 8.5526,-33.9835 30.0079,-61.64523 58.138,-74.95566 12.3164,-5.82778 18.9632,-7.45814 33.0657,-8.11042 23.6837,-1.09544 42.9746,5.758 61.6606,21.906 21.9607,18.97795 36.6804,53.43797 36.7558,86.04832 0.02,8.46581 -2.1787,24.84854 -4.5761,34.10404 -0.835,3.22335 -1.2715,6.10717 -0.9702,6.40851 0.8523,0.85226 7.2383,-13.62433 11.0279,-24.99931 5.785,-17.36457 7.624,-28.19805 8.2461,-48.57616 0.3661,-11.99137 0.1339,-21.47779 -0.6731,-27.5 -9.199,-68.64881 -55.8622,-121.90435 -119.9071,-136.8468 -12.7739,-2.98029 -40.2722,-3.66738 -54.1998,-1.35426 -48.9305,8.12652 -90.6876,40.03074 -113.8774,87.0074 -20.6164,41.76351 -23.7212,86.46078 -9.0717,130.59928 8.2402,24.82742 20.1987,44.14886 38.9769,62.97535 35.3392,35.42999 80.2588,50.24662 128.2782,42.31222 z m 13.4814,-133.40122 c 6.1266,-2.6791 13.6838,-10.18978 16.3728,-16.27187 1.768,-3.99891 2.3114,-7.07783 2.3321,-13.21376 0.024,-7.21557 -0.3055,-8.61787 -3.3643,-14.30139 -5.971,-11.09493 -15.3719,-16.68549 -28.0578,-16.68549 -15.539,0 -27.2782,9.57621 -30.9705,25.2639 -2.7684,11.7627 3.6097,26.51065 14.3308,33.13664 8.2857,5.12081 20.4256,5.97763 29.3569,2.07197 z M 1201.9362,325.88223 c -21.8394,-19.9926 -42.3198,-36.0216 -49.0668,-38.40207 -2.2505,-0.79401 -6.7643,-2.86812 -10.0308,-4.60914 -12.7386,-6.7896 -16.4767,-15.49298 -9.6055,-22.36421 7.8136,-7.81353 25.2178,-7.15657 38.6435,1.45867 6.2748,4.02653 16.571,15.0125 20.8901,22.2897 5.4012,9.10024 10.1069,20.95675 13.2379,33.35416 1.6124,6.38426 2.9316,12.00975 2.9316,12.50107 0,1.70407 -1.5279,0.78115 -7,-4.22818 z"
           id="path1305" />
        <path
           style="fill:#28a745;fill-opacity:1"
           d="m 847.56727,1235.6153 c -10.2782,-0.8966 -35.6876,-3.9917 -37.7974,-4.6041 -0.7136,-0.2071 -1.7797,-1.62 -2.3692,-3.1397 -0.5894,-1.5198 -4.4327,-5.8621 -8.5406,-9.6496 l -7.469,-6.8864 -6.1619,0.5985 c -3.389,0.3292 -10.8869,1.1461 -16.6619,1.8155 -14.5972,1.6918 -73.0986,1.7178 -89,0.039 -46.4771,-4.9053 -84.4636,-18.2267 -87.5992,-30.7199 -3.7782,-15.0534 33.1298,-31.633 100.0992,-44.9659 9.9,-1.9709 19.0125,-3.7972 20.25,-4.0583 1.4121,-0.2979 2.25,-1.209 2.25,-2.4465 0,-1.499 -2.4447,-3.1987 -10.1935,-7.0872 -25.4712,-12.7821 -41.703,-28.1116 -41.7845,-39.4618 -0.012,-1.6823 -0.5845,-3.7478 -1.272,-4.5899 -0.6875,-0.8421 -8.45,-4.7896 -17.25,-8.7722 -8.8,-3.9827 -17.0005,-7.8822 -18.2233,-8.6656 -5.342,-3.4227 -18.5482,-26.437 -20.4944,-35.7155 -2.3243,-11.0809 1.3829,-16.9698 16.6074,-26.3816 5.0107,-3.09757 10.8138,-6.99909 12.8958,-8.67004 4.5878,-3.68141 9.7145,-11.17294 9.7145,-14.19505 0,-5.46669 -4.5508,-12.88027 -22.4515,-36.57547 -12.2868,-16.26391 -16.5485,-23.79024 -16.5485,-29.22512 0,-3.0656 0.3435,-3.65009 2.1449,-3.65009 6.6244,0 58.9395,31.93739 87.1543,53.20611 6.4895,4.89193 12.3758,9.11568 13.0805,9.38612 0.7455,0.28604 2.7562,-1.72941 4.8073,-4.8187 11.9009,-17.92401 38.0922,-46.02673 56.164,-60.2629 9.6612,-7.61061 9.9455,-7.95533 14.7525,-17.8854 2.6958,-5.56888 5.1739,-12.17053 5.5068,-14.67034 0.525,-3.94183 0.2549,-4.96165 -2.0352,-7.68325 -3.3276,-3.95464 -6.0109,-4.78068 -22.0751,-6.79561 -44.804,-5.61976 -100.8887,-17.70213 -137.3027,-29.57921 -52.3984,-17.09068 -87.5075,-36.8432 -115.1973,-64.81048 -20.8082,-21.0167 -34.5668,-43.79438 -44.4094,-73.52074 -8.0263,-24.2407 -13.5502,-59.35037 -13.5803,-86.3156 -0.013,-11.47152 -0.4814,-11.6067 -11.5774,-3.33973 -27.4802,20.47371 -63.7154,39.01916 -97.6944,50.00061 -65.7454,21.24786 -130.1874,21.39204 -211.7385,0.47373 -21.9814,-5.63835 -59.4418,-18.14117 -81,-27.03466 -18.7799,-7.74732 -66.5159,-31.33927 -66.4688,-32.84995 0.017,-0.55 6.3172,-3.19802 14,-5.8845 43.7601,-15.30169 75.0639,-26.95725 141.9688,-52.86014 38.2576,-14.81182 76.6358,-25.41988 104,-28.74651 13.217,-1.60677 14.1038,-1.85264 12.4061,-3.43959 -0.7734,-0.72287 -14.0061,-9.75016 -29.4061,-20.06064 -40.2874,-26.97288 -71.3795,-48.85919 -81.8772,-57.63485 -12.9447,-10.8212 -34.3251,-33.07155 -46.9628,-48.87377 -12.3338,-15.42215 -28.9495,-39.62901 -28.3798,-41.34549 0.7474,-2.25172 14.7849,-2.78565 61.2198,-2.32856 58.1857,0.57277 86.6785,3.04701 124.2683,10.79113 28.5952,5.89108 47.808,12.43728 69.2317,23.58878 25.7467,13.4017 46.0043,28.32956 67.5722,49.79414 20.734,20.63458 34.791,38.84227 47.4804,61.5 2.9262,5.225 5.4615,9.6875 5.6339,9.91667 0.8164,1.08516 1.522,-1.65604 3.8638,-15.01236 7.575,-43.20214 21.1599,-97.05644 34.913,-138.40431 35.7968,-107.62163 89.9617,-182.83086 181.3951,-251.87141 52.9674,-39.99518 117.7076,-64.94715 198.6416,-76.55982 65.0842,-9.33849 149.58513,-8.96977 217.12063,0.94742 30.336,4.45466 51.5974,8.96614 54.4588,11.55563 0.9008,0.81524 9.464,3.68383 19.0292,6.37466 45.9393,12.92329 90.4277,30.36623 138.3914,54.2602 19.2869,9.60811 28.0142,14.49837 22.2748,12.4814 -0.9488,-0.33345 -7.4738,-1.71634 -14.5,-3.0731 -52.9611,-10.22683 -93.4835,-7.9855 -124.7001,6.8973 -10.2196,4.8723 -30.2781,16.54062 -42.5048,24.7256 -78.5252,52.56787 -138.69623,132.0956 -181.96303,240.49949 -22.0644,55.28184 -40.3266,115.90248 -59.1251,196.26263 -3.9241,16.775 -8.6857,35.18083 -10.5813,40.90184 -3.9427,11.899 -10.3178,25.98988 -13.8593,30.63298 -2.3075,3.02538 -2.8245,3.19961 -11.4191,3.84842 -20.8889,1.5769 -44.2313,6.71745 -59.8374,13.17762 -41.5993,17.22006 -50.0905,47.26382 -23.4463,82.95818 7.161,9.59338 27.7018,29.84776 42.1616,41.57363 5.775,4.68312 18.1216,14.72773 27.4369,22.32136 9.3153,7.59362 22.1403,17.72532 28.5,22.51488 56.1872,42.3151 107.9119,66.81973 154.56313,73.22442 11.9015,1.63395 55.1488,1.63221 68,-0.003 25.0886,-3.19182 54.1413,-11.27443 77.539,-21.57175 5.7223,-2.51836 10.9322,-4.57884 11.5776,-4.57884 0.6454,0 2.9792,3.7125 5.1863,8.25 10.8018,22.20753 19.2159,63.55907 19.1779,94.25 -0.03,23.91231 -5.4488,64.89373 -9.9293,75.08963 -4.3109,9.8099 -29.8873,45.2226 -47.7009,66.0461 -12.7714,14.9293 -41.6965,43.3986 -54.9241,54.0585 -53.5532,43.1578 -108.89903,67.2104 -174.63193,75.8928 -14.1034,1.8629 -59.7774,2.73 -74.7946,1.4199 z M 709.02677,661.56556 c 4.9277,-0.56449 12.3527,-1.71843 16.5,-2.5643 8.0077,-1.63322 26.8694,-7.82183 28.349,-9.30142 0.5092,-0.50923 -5.6028,-0.86216 -14.4633,-0.83517 -17.3973,0.053 -25.6679,-1.59849 -38.5363,-7.69497 -47.1933,-22.35821 -70.0832,-83.33053 -52.2371,-139.14523 5.966,-18.65905 14.1293,-32.46437 27.3227,-46.20701 19.3349,-20.1396 43.8765,-30.31499 69.6055,-28.85965 12.5281,0.70864 19.6608,2.49235 30.8435,7.71314 11.1999,5.22882 19.2869,11.17088 28.4278,20.88768 12.6429,13.43949 21.1824,29.19466 26.4936,48.88016 2.3995,8.89363 2.6135,11.31452 2.666,30.16954 0.054,19.28041 -0.1109,21.16737 -2.7664,31.71778 -3.8593,15.33274 -3.0265,17.00454 2.6029,5.22543 22.7406,-47.58315 22.8047,-103.30499 0.1732,-150.59398 -14.3048,-29.89012 -41.4662,-57.7812 -70.4717,-72.36488 -32.7524,-16.46757 -72.7438,-19.94795 -107.8001,-9.38163 -52.6181,15.85961 -94.2589,60.30664 -108.5831,115.90069 -17.3921,67.50046 6.4578,138.49588 59.7706,177.92253 19.4273,14.36716 43.1311,24.3009 65.6437,27.50981 15.8611,2.2608 23.7191,2.48096 36.4595,1.02148 z m 24.0405,-136.03242 c 7.0098,-3.29744 13.8674,-10.62888 16.5217,-17.66327 4.5134,-11.9613 1.1288,-26.37567 -8.1647,-34.77178 -6.1542,-5.55998 -11.4716,-7.77008 -19.857,-8.25329 -5.9711,-0.34408 -8.6512,0.002 -13.1471,1.69902 -19.7002,7.43484 -26.7142,30.3435 -14.7982,48.33331 8.0735,12.18881 25.9314,17.01304 39.4453,10.65601 z"
           id="path1295" />
        <path
           style="fill:#005000;fill-opacity:1"
           d="m 653.62227,1082.4045 c -2.75,-1.4403 -9.05,-4.3806 -14,-6.5341 -10.7116,-4.66 -11.349,-5.1833 -17.6443,-14.4875 -10.4802,-15.4892 -14.9378,-27.5341 -12.9382,-34.9601 1.3116,-4.8709 5.2993,-8.6695 16.0825,-15.3196 11.1327,-6.8656 16.3245,-11.14469 19.9955,-16.48029 6.1701,-8.968 3.9809,-14.5167 -16.3762,-41.5066 -13.6151,-18.0513 -20.1746,-29.12 -19.3893,-32.7183 0.2138,-0.98 0.8121,-1.698 1.3294,-1.5957 1.859,0.3675 26.1742,13.7739 37.4406,20.6432 16.0276,9.7721 30.2532,19.3602 45.767,30.847 l 13.267,9.8232 -2.4519,4.8386 c -3.6786,7.2593 -6.5821,16.59459 -6.5821,21.16259 0,7.7974 4.5858,14.2582 12.4531,17.5446 l 3.953,1.6513 -6.7313,2.8716 c -24.0336,10.2527 -40.7751,28.9971 -45.7132,51.1819 -0.7039,3.1625 -1.7707,5.729 -2.3707,5.7034 -0.6,-0.026 -3.3409,-1.2249 -6.0909,-2.6652 z m -429,-407.38329 c -55.9495,-3.7566 -119.588,-20.1355 -180.7501,-46.52042 -19.6492,-8.47655 -54.7499,-26.30466 -54.7499,-27.80823 0,-0.63849 7.5375,-3.76485 16.75,-6.94746 28.5485,-9.86256 72.9107,-26.17585 103.9984,-38.24327 59.0633,-22.92682 76.6377,-28.939 103.2516,-35.3221 13.5301,-3.24508 31.4934,-6.47363 42.25,-7.59362 3.7125,-0.38655 6.75,-1.07495 6.75,-1.52978 0,-0.45484 -14.2875,-10.43732 -31.75,-22.1833 -42.395,-28.51662 -66.6329,-45.50983 -78.3173,-54.90842 -17.5689,-14.13189 -39.1976,-36.85451 -55.613,-58.42568 -9.0239,-11.85816 -22.3197,-31.55958 -22.3197,-33.07281 0,-0.72145 1.2375,-1.64421 2.75,-2.05059 4.5991,-1.23566 89.3848,-0.82361 106.75,0.5188 79.0093,6.10778 124.3692,18.70882 166.4768,46.24744 17.471,11.42616 27.589,19.54608 42.9025,34.43031 20.8206,20.23685 39.2578,44.10388 51.1804,66.25314 2.4422,4.53691 4.8903,8.0997 5.4403,7.91731 0.55,-0.18238 1.371,-2.7694 1.8245,-5.74892 3.7056,-24.34865 15.9879,-78.47155 25.2845,-111.41732 36.8864,-130.72121 93.1293,-214.41798 194.891,-290.02318 18.9706,-14.09448 30.9967,-21.57903 50.5,-31.42926 53.6773,-27.10991 119.2259,-43.26445 199.5,-49.16709 20.9157,-1.53795 77.3009,-1.53035 99.50003,0.0134 45.9456,3.19514 114,13.34019 114,16.99428 0,0.44608 -12.9375,1.08775 -28.75,1.42593 -15.8125,0.33817 -34.6,1.09914 -41.75,1.69103 -113.51323,9.39687 -214.68663,38.01866 -287.50003,81.33329 -102.0753,60.72167 -195.0149,163.1506 -270.5392,298.16159 -10.5246,18.81439 -30.5492,58.67285 -38.3721,76.3788 -5.6975,12.89522 -6.4931,15.51792 -7.7117,25.41893 -2.6489,21.52177 -4.4057,45.50395 -5.0445,68.86304 l -0.6471,23.66077 -8.0927,5.94031 c -55.2222,40.53497 -115.717,62.86037 -182.0756,67.19427 -17.5646,1.1472 -22.2576,1.1412 -40.0171,-0.051 z m 494.8408,-19.8428 c -36.6219,-8.607 -65.5521,-41.92607 -72.8776,-83.93349 -1.8937,-10.85945 -1.8801,-33.47602 0.027,-44.41084 9.745,-55.88192 55.9387,-95.94164 104.51,-90.63229 35.9806,3.93306 65.131,29.28487 78.6654,68.4145 3.3114,9.57379 6.3358,27.90046 6.3287,38.34937 -0.011,16.10256 -6.0689,45.35033 -11.7338,56.65063 -10.8936,21.73063 -28.0167,39.39332 -47.7678,49.27302 -12.314,6.1596 -17.0993,7.2517 -33.9925,7.7575 -12.4055,0.3715 -16.4112,0.1175 -23.1592,-1.4684 z m 11.6592,-119.26788 c 13.3627,-3.90556 22.2694,-16.15874 22.4111,-30.83162 0.063,-6.57189 -0.3451,-8.38625 -3.1897,-14.16444 -9.0391,-18.361 -30.9652,-24.09385 -47.7943,-12.49637 -15.8116,10.89633 -18.5162,33.48481 -5.7142,47.72374 9.0385,10.05303 21.3313,13.55534 34.2871,9.76869 z"
           id="path1283" />
        <circle
           id="path1401"
           style="fill:#000000;stroke:#000000"
           cx="1129.1844"
           cy="718.74359"
           r="1.7423697" />
      </g>
    </g>
  </g>
</svg>
