<?xml version="1.0" encoding="UTF-8" standalone="no"?>
<svg
   xmlns:dc="http://purl.org/dc/elements/1.1/"
   xmlns:cc="http://creativecommons.org/ns#"
   xmlns:rdf="http://www.w3.org/1999/02/22-rdf-syntax-ns#"
   xmlns:svg="http://www.w3.org/2000/svg"
   xmlns="http://www.w3.org/2000/svg"
   xmlns:sodipodi="http://sodipodi.sourceforge.net/DTD/sodipodi-0.dtd"
   xmlns:inkscape="http://www.inkscape.org/namespaces/inkscape"
   version="1.1"
   id="svg2"
   width="1600"
   height="1401"
   viewBox="0 0 1600 1401"
   sodipodi:docname="loro_transparent.svg"
   inkscape:version="1.0.2 (e86c870879, 2021-01-15, custom)">
  <metadata
     id="metadata8">
    <rdf:RDF>
      <cc:Work
         rdf:about="">
        <dc:format>image/svg+xml</dc:format>
        <dc:type
           rdf:resource="http://purl.org/dc/dcmitype/StillImage" />
        <dc:title></dc:title>
      </cc:Work>
    </rdf:RDF>
  </metadata>
  <defs
     id="defs6" />
  <sodipodi:namedview
     pagecolor="#ffffff"
     bordercolor="#666666"
     borderopacity="1"
     objecttolerance="10"
     gridtolerance="10"
     guidetolerance="10"
     inkscape:pageopacity="0"
     inkscape:pageshadow="2"
     inkscape:window-width="1366"
     inkscape:window-height="739"
     id="namedview4"
     showgrid="false"
     inkscape:snap-global="false"
     inkscape:zoom="0.28667855"
     inkscape:cx="930.18548"
     inkscape:cy="792.76495"
     inkscape:window-x="0"
     inkscape:window-y="0"
     inkscape:window-maximized="1"
     inkscape:current-layer="g10"
     inkscape:document-rotation="0" />
  <g
     inkscape:groupmode="layer"
     inkscape:label="Image"
     id="g10">
    <g
       id="g881"
       transform="matrix(1.4312416,0,0,1.4312416,-275.71074,-320.16366)">
      <path
         style="fill:#dcbb30;fill-opacity:1;stroke-width:0.692384"
         d="m 741.98453,1202.8198 c -6.58008,-2.0249 -10.69901,-9.5888 -10.10425,-18.5554 0.64226,-9.6836 6.63464,-20.334 22.64187,-40.2421 4.59294,-5.7122 8.35265,-10.6219 8.35487,-10.9104 0,-0.2885 -3.65683,1.3081 -8.13136,3.548 -28.58316,14.3086 -48.79483,19.974 -57.36814,16.0805 -6.02943,-2.7381 -7.51459,-11.3513 -3.42364,-19.855 2.56141,-5.3244 14.29733,-17.0638 22.88372,-22.8907 13.42749,-9.112 30.11257,-18.2614 40.85069,-22.401 2.28487,-0.8807 4.38439,-1.7984 4.66556,-2.0393 0.28118,-0.2408 -1.64704,-2.5796 -4.28489,-5.1973 l -4.79607,-4.7593 -6.79327,0.8077 c -41.00467,4.8751 -90.35306,1.2595 -114.68982,-8.4029 -14.69586,-5.8347 -20.02002,-11.8117 -16.71873,-18.7686 4.57098,-9.6328 30.85438,-19.9364 71.59581,-28.0671 5.87398,-1.1723 10.81318,-2.2646 10.97603,-2.4275 0.16285,-0.1628 -1.99476,-1.444 -4.7947,-2.8472 -12.26109,-6.1445 -23.59688,-15.1874 -27.09487,-21.61431 -1.01808,-1.87054 -2.20365,-5.04492 -2.63452,-7.05415 l -0.78344,-3.65309 -6.67576,-3.10333 c -3.67165,-1.70687 -10.57036,-4.90672 -15.3305,-7.11079 -18.75511,-8.68417 -51.05983,-19.96207 -102.12672,-35.65344 -62.05586,-19.06805 -81.37373,-26.65032 -90.0797,-35.35628 -3.49945,-3.49941 -4.80384,-7.18225 -4.1316,-11.66503 1.56922,-10.46413 13.49554,-12.55775 37.76043,-6.62867 11.2813,2.75655 28.09413,8.44741 44.19948,14.96077 7.11909,2.87912 13.38434,5.41254 13.92281,5.62983 2.27808,0.91926 -0.35215,-1.46064 -5.31675,-4.81071 -18.45779,-12.45521 -40.13358,-30.92056 -45.10262,-38.42244 -8.51051,-12.84854 -3.22727,-19.64644 12.09838,-15.56686 15.44087,4.11023 42.25727,18.63388 73.69214,39.91131 8.56826,5.79963 17.29494,11.51065 19.39266,12.69116 5.02124,2.82583 9.52949,4.40357 10.07246,3.52504 0.23146,-0.37455 -3.19639,-4.13528 -7.61741,-8.35716 -8.89222,-8.49157 -18.75136,-19.60064 -23.17016,-26.10763 -8.92352,-13.1404 -7.21215,-20.44114 4.76167,-20.31393 8.32731,0.0885 20.1263,3.42151 35.26259,9.96116 4.41879,1.90914 10.39379,4.48117 13.27778,5.71563 14.41088,6.16841 42.14884,23.34377 62.87094,38.92973 3.19002,2.39932 6.04659,4.21 6.34799,4.02372 0.30146,-0.18628 2.02848,-2.43915 3.83789,-5.00638 8.8072,-12.49573 23.46574,-28.09792 35.73181,-38.03203 7.87394,-6.37696 8.18399,-6.73331 11.23041,-12.90745 4.05391,-8.21602 4.58255,-11.32565 2.3638,-13.90508 -1.55066,-1.80276 -2.32302,-2 -13.87795,-3.54399 -42.79185,-5.71791 -84.71684,-15.73542 -113.37325,-27.08923 -65.83676,-26.08495 -96.13586,-66.28393 -102.46605,-135.94584 -0.39798,-4.37933 -0.72465,-10.51451 -0.72597,-13.63373 0,-3.11922 -0.23603,-5.81429 -0.52164,-5.98904 -0.28561,-0.17476 -3.01187,1.52653 -6.05836,3.78065 -18.44499,13.64754 -43.23263,26.25754 -66.48477,33.82228 -36.16684,11.76636 -72.2182,14.18183 -113.36875,7.59581 -32.10864,-5.13888 -67.38148,-15.81526 -100.85516,-30.52682 -11.36216,-4.99363 -32.4684,-15.76918 -34.4077,-17.5665 -1.53806,-1.42537 -1.56347,-1.57473 -0.43045,-2.52629 0.66233,-0.55625 9.92831,-4.07043 20.59103,-7.80929 22.75002,-7.97725 50.35525,-18.24142 75.3189,-28.00508 37.21145,-14.55391 60.85548,-21.49693 82.89096,-24.34075 3.61771,-0.46688 6.97273,-1.05489 7.4556,-1.30668 0.53154,-0.27717 -7.11744,-5.81105 -19.38677,-14.02591 -46.5047,-31.13698 -58.39135,-40.1798 -73.15049,-55.64968 -15.12383,-15.85214 -36.75385,-44.83301 -35.63586,-47.74652 0.57447,-1.497 9.26092,-1.95274 36.93899,-1.93803 62.83861,0.0334 105.33197,6.88139 136.74594,22.03722 20.90268,10.08458 42.34208,26.19144 58.1173,43.66184 10.42489,11.54518 20.741,25.86056 27.02377,37.50021 1.99338,3.69288 3.13796,4.15238 3.13796,1.25974 0,-2.53772 5.31156,-29.12361 8.69427,-43.51735 17.68024,-75.23088 39.77472,-125.1185 74.95706,-169.24736 10.26758,-12.87852 34.72592,-37.6831 48.24791,-48.93098 12.23949,-10.18102 28.43831,-22.2948 37.1258,-27.76334 30.49988,-19.19885 72.30952,-33.44756 118.66072,-40.43959 31.72249,-4.7853 94.8184,-5.59953 133.63023,-1.72444 18.8656,1.8836 50.87766,7.32892 56.42933,9.59874 1.33284,0.54494 8.0317,2.55484 14.8863,4.46645 35.5862,9.9243 74.219,25.97693 115.6601,48.05892 3.8256,2.03851 7.6655,3.892 8.5331,4.11887 0.8675,0.22687 1.7283,0.98086 1.9128,1.67554 0.1846,0.69468 4.1233,3.75564 8.7527,6.80213 89.0689,58.61391 138.8287,134.60475 153.1273,233.84898 2.119,14.70757 2.3104,16.57438 3.2471,31.68048 0.4133,6.6642 0.9012,12.58409 1.0843,13.1553 0.3039,0.94825 0.4559,44.08591 0.1568,44.48571 -0.071,0.0952 -0.5526,6.71613 -1.0697,14.71317 -1.2789,19.78014 -1.4731,22.14599 -2.7001,32.88826 -3.0109,26.35874 -6.3538,49.63765 -9.6942,67.50749 -0.5695,3.04649 -1.3547,7.40852 -1.745,9.69338 -2.3578,13.80385 -7.139,36.43344 -8.631,40.85069 -4.1896,12.40425 -14.2224,23.80864 -21.001,23.87206 -1.0875,0.0102 -2.6685,-1.1452 -4.7788,-3.49235 -11.6706,-12.98053 -38.255,-21.42981 -79.4517,-25.252 -2.6657,-0.24732 -5.7399,-0.55296 -6.8315,-0.67922 -6.2496,-0.72279 -41.8219,-1.90215 -59.6374,-1.97721 -20.3172,-0.0856 -20.7731,-0.0572 -20.8421,1.29726 -0.039,0.76162 -0.1167,1.75168 -0.1731,2.20012 -0.057,0.44844 -2.0499,1.98619 -4.4299,3.41721 -2.3801,1.43103 -5.6988,3.79336 -7.375,5.24963 -4.6092,4.00441 -17.7233,11.88228 -30.9652,18.60128 -6.521,3.30882 -12.2713,6.15435 -12.7785,6.32339 -0.6758,0.22527 -0.1612,1.77411 1.9268,5.79894 5.1436,9.91526 9.6022,25.65924 12.4375,43.91892 1.6879,10.8703 1.6622,36.10098 -0.05,48.8131 -6.5626,48.7319 -24.5909,93.12126 -51.52838,126.87286 -3.1124,3.8997 -5.65885,7.2055 -5.65885,7.3462 0,0.1407 5.06306,0.4329 11.25124,0.6495 16.86679,0.5902 30.09779,3.443 41.11629,8.8654 12.3346,6.0701 16.1918,13.9044 9.8503,20.0065 -3.539,3.4055 -16.1803,7.6021 -22.9991,7.6353 -1.1969,0.01 -2.633,0.2995 -3.1913,0.6526 -0.8087,0.5116 -0.6055,0.7978 1,1.4082 28.2793,10.7518 49.8998,29.7426 50.7464,44.5741 0.3131,5.4845 -1.2082,8.4822 -5.4313,10.7029 -2.6991,1.4191 -3.7662,1.5737 -8.9498,1.2957 -6.6719,-0.3576 -9.8411,-1.4662 -47.9988,-16.7897 -11.8078,-4.7419 -21.60701,-8.4834 -21.77595,-8.3145 -0.16894,0.169 0.36662,1.2534 1.19007,2.4098 3.28024,4.6067 5.78931,11.3256 5.85778,15.6867 0.0561,3.5754 -0.21831,4.581 -1.82602,6.6889 -5.65228,7.411 -18.47483,5.9336 -40.53212,-4.6701 -16.34305,-7.8567 -32.94262,-17.6193 -51.94061,-30.5476 l -10.58637,-7.2041 -4.29992,0.6978 c -2.36498,0.3838 -5.39042,0.705 -6.72326,0.7137 -4.69367,0.031 -4.76056,0.8221 -0.51368,6.0784 8.6339,10.686 17.86236,27.4037 20.20242,36.5978 2.79391,10.977 0.4058,19.2083 -6.79772,23.4297 -16.02226,9.3897 -40.12216,-5.6737 -63.12331,-39.4545 -2.59291,-3.8081 -4.84593,-7.0796 -5.00663,-7.27 -0.38261,-0.4534 -1.26983,0.8167 -7.49686,10.732 -7.34212,11.6907 -17.9428,25.5094 -25.41204,33.1263 -17.79172,18.1432 -38.11929,27.1236 -51.83896,22.9016 z M 706.56774,690.24755 c 3.49107,-0.7351 8.16467,-1.89427 10.38577,-2.57592 l 4.0384,-1.23937 -7.27004,-0.52662 c -16.44627,-1.19133 -29.83595,-7.49706 -41.25171,-19.42717 -11.09145,-11.59114 -17.83762,-25.31799 -20.80982,-42.34297 -1.48572,-8.5105 -0.95203,-26.06166 1.03449,-34.02079 4.18394,-16.76334 11.07323,-29.44279 21.84944,-40.21308 8.69247,-8.68762 19.2703,-15.01401 30.17661,-18.0479 6.37637,-1.77377 23.41464,-1.77079 29.77253,0.006 33.69122,9.41126 55.83783,47.2645 50.21193,85.82296 -0.65645,4.49924 -1.04148,8.3325 -0.85565,8.51837 0.55232,0.55232 4.62395,-11.32392 6.4128,-18.70502 2.59139,-10.69284 3.30703,-17.16296 3.26238,-29.49728 -0.11328,-31.2897 -11.11201,-58.10774 -32.67487,-79.67054 -20.33984,-20.33986 -43.34888,-30.00523 -71.36158,-29.97677 -17.07552,0.0174 -30.14372,3.1738 -45.58037,11.00939 -31.96476,16.22513 -54.16531,48.11068 -59.35971,85.25544 -1.55108,11.09214 -1.04225,30.13657 1.06994,40.03896 8.63279,40.47339 35.76747,71.49901 72.61888,83.03207 5.12794,1.60484 12.87752,3.18821 20.17311,4.1217 5.24211,0.67075 21.96035,-0.25608 28.15747,-1.561 z m 7.61145,-91.86091 c 4.18928,-2.0348 8.10485,-6.11848 10.17376,-10.61053 2.22311,-4.82675 2.03894,-13.07466 -0.39611,-17.74055 -6.71564,-12.86809 -23.12322,-16.00406 -33.53253,-6.40906 -10.01222,9.22895 -8.90849,25.43686 2.25524,33.11774 6.31018,4.34153 14.63361,4.97737 21.49964,1.6424 z"
         id="path1321" />
      <path
         style="fill:#e8cc4c;stroke-width:0.692384"
         d="m 741.95316,1203.0932 c -5.44913,-1.4484 -10.92167,-9.7561 -10.92167,-16.58 0,-10.4467 7.37368,-23.3954 26.93611,-47.302 2.79225,-3.4123 4.75696,-6.3109 4.36604,-6.4412 -0.39092,-0.1303 -4.74304,1.7837 -9.67137,4.2532 -18.04693,9.0434 -33.72085,14.8389 -44.27896,16.3726 -9.9785,1.4495 -14.99601,-0.8687 -16.85956,-7.7895 -3.19528,-11.8664 9.518,-26.6351 37.60936,-43.69 8.23543,-4.9999 21.50324,-11.6446 28.74469,-14.3957 2.38914,-0.9076 4.25858,-1.9618 4.1543,-2.3426 -0.1042,-0.3808 -2.29664,-2.693 -4.87203,-5.1381 l -4.6826,-4.4458 -8.47271,0.8414 c -24.16082,2.3991 -40.46108,2.7087 -60.7478,1.1539 -32.7421,-2.5093 -55.6279,-8.5073 -65.45,-17.153 -14.68444,-12.9258 10.55263,-27.4861 67.44206,-38.9102 6.61732,-1.3288 12.16907,-2.5535 12.33704,-2.7216 0.16804,-0.1679 -3.09579,-2.0726 -7.25293,-4.2326 -16.77987,-8.7183 -27.84771,-20.01404 -27.84771,-28.42104 0,-2.14314 -1.42901,-3.1374 -10.38577,-7.22628 -4.37933,-1.99926 -10.76657,-4.97623 -14.19388,-6.61552 -14.92954,-7.14098 -52.62897,-20.21541 -101.78052,-35.29832 -58.72674,-18.02119 -77.72244,-25.35026 -87.1019,-33.60644 -4.2376,-3.73005 -5.33143,-5.92727 -5.33143,-10.70924 0,-4.78218 1.26436,-7.34713 4.65435,-9.44227 3.58814,-2.21762 14.04218,-2.63662 23.5752,-0.9449 13.66691,2.4253 33.74911,8.93744 57.52566,18.65412 6.22814,2.54524 11.46748,4.48413 11.64293,4.30866 0.35887,-0.35887 -0.5089,-1.01437 -13.61962,-10.28836 -25.45662,-18.00696 -40.18814,-32.45048 -42.15119,-41.32722 -1.90461,-8.6126 5.19427,-10.92867 19.45185,-6.34631 3.69983,1.18912 12.26809,4.93942 19.04058,8.33401 17.71735,8.88052 30.45474,16.633 57.98914,35.2946 13.05671,8.84922 22.5243,13.50754 22.5243,11.08254 0,-0.47566 -5.6862,-6.6768 -12.63601,-13.78033 -13.23556,-13.5283 -19.67639,-21.66142 -22.40134,-28.28693 -2.36685,-5.75502 -1.97503,-9.1364 1.29552,-11.17887 5.74603,-3.58844 24.0695,0.29066 44.31662,9.38187 3.8946,1.7487 8.58239,3.77717 10.41741,4.5077 13.05574,5.19756 40.97906,22.16637 61.2475,37.21971 4.6754,3.47241 8.77833,6.31348 9.1176,6.31348 0.33934,0 1.27586,-1.06621 2.08124,-2.36934 7.57268,-12.25284 28.41574,-34.36705 41.05037,-43.55389 3.41608,-2.48388 4.46276,-3.8319 7.45012,-9.59507 5.08342,-9.80669 5.3457,-14.61919 0.89173,-16.3634 -1.06178,-0.41581 -8.64893,-1.69528 -16.86026,-2.84328 -34.31056,-4.79681 -67.72434,-12.25136 -93.72151,-20.9091 -79.0557,-26.32759 -114.07651,-71.40566 -117.87036,-151.72029 -0.24732,-5.23615 -0.66635,-9.52028 -0.93112,-9.52028 -0.26477,0 -2.54181,1.55974 -5.06002,3.46609 -2.51827,1.90635 -7.62779,5.43616 -11.35455,7.84402 -29.55187,19.09356 -62.38592,31.25019 -97.90005,36.24695 -12.36772,1.74013 -44.30084,1.73263 -57.7385,-0.0136 -36.21406,-4.70593 -71.03982,-14.3081 -108.35817,-29.87654 -11.60602,-4.8418 -38.0351,-17.91465 -40.09232,-19.83123 -2.88087,-2.68397 -3.8689,-2.18997 23.82129,-11.9108 21.80498,-7.65481 38.2325,-13.7781 68.54606,-25.55027 28.36671,-11.01613 43.25222,-16.11543 58.1603,-19.92389 10.12058,-2.58542 29.73092,-6.22729 33.53197,-6.22729 1.04225,0 2.09204,-0.19698 2.33278,-0.43774 0.24074,-0.24076 -8.10699,-6.1488 -18.5505,-13.12898 -50.59655,-33.81736 -62.47143,-42.95148 -77.87179,-59.89878 -11.21248,-12.33875 -26.14998,-31.8693 -31.52614,-41.22005 -2.06697,-3.595 -1.27482,-4.20599 6.17718,-4.76469 11.16117,-0.83678 67.94348,0.11 80.36742,1.34005 40.9866,4.05791 65.05375,9.93636 87.93283,21.47778 33.99026,17.14648 63.25604,44.96015 81.59038,77.54189 2.19306,3.89733 4.00967,6.44579 4.19502,5.88527 0.17982,-0.54375 0.69003,-3.32543 1.13385,-6.18152 2.46081,-15.83731 9.62158,-47.37849 15.87638,-69.93083 25.48245,-91.87988 64.2611,-150.16792 135.48614,-203.64887 12.93056,-9.70924 21.76393,-15.25106 35.21011,-22.09005 31.73918,-16.14314 76.8562,-28.54992 118.05156,-32.46315 32.43572,-3.08113 95.00133,-2.43963 123.59065,1.2672 21.1826,2.7465 47.2936,7.53311 49.10481,9.00179 0.41079,0.33309 5.04804,1.73308 10.30498,3.11109 35.0909,9.19846 80.4844,27.98098 122.0427,50.49788 3.0728,1.66486 6.0327,3.18492 6.5776,3.3779 0.545,0.19299 0.7957,0.56277 0.5572,0.82173 -0.2386,0.25895 -4.7564,-0.30453 -10.0396,-1.25218 -16.9465,-3.03972 -22.1863,-3.50575 -39.3784,-3.50238 -18.7453,0.004 -27.0193,0.95108 -42.2355,4.83611 -22.014,5.62068 -42.2182,16.28403 -64.38043,33.97865 -9.19251,7.3394 -24.59246,22.26431 -32.98312,31.96569 -5.71764,6.61082 -6.95078,8.47038 -5.61676,8.47038 0.29211,0 5.51096,0.31831 11.59744,0.70736 141.87757,9.06882 262.51927,101.28313 308.12047,235.51669 11.6783,34.37668 17.2723,66.29436 18.1205,103.39055 0.6996,30.59265 -2.5667,61.13612 -9.5885,89.66379 -2.7825,11.30457 -3.5041,12.78543 -6.8896,14.14005 -3.9828,1.5936 -5.1886,1.3712 -7.2552,-1.33817 -1.0196,-1.33682 -3.7617,-3.86494 -6.0936,-5.61805 -17.205,-12.935 -49.3,-20.00401 -101.7501,-22.41077 -21.1166,-0.96897 -57.3813,-1.67809 -59.4367,-1.16222 -1.442,0.3619 -1.7056,0.76461 -1.4334,2.18885 0.426,2.22823 -0.4995,3.30405 -5.1124,5.94331 -2.0549,1.17566 -5.2645,3.43654 -7.1325,5.02419 -5.3245,4.52514 -16.5661,11.27065 -30.5123,18.30879 -7.045,3.55537 -12.904,6.7318 -13.02,7.05874 -0.1159,0.32694 1.0115,3.03602 2.5055,6.02018 8.2872,16.55374 13.3742,41.80043 13.3699,66.35558 0,16.17167 -1.2328,28.26988 -4.5759,45.00495 -8.158,40.83795 -25.3226,78.88584 -48.72769,108.01204 l -5.56387,6.9238 10.52335,0.4539 c 18.66241,0.8049 35.02481,4.6583 45.26631,10.6601 17.5021,10.257 11.1961,22.1148 -13.5215,25.4258 -3.5094,0.47 -6.3848,1.1202 -6.3898,1.4448 -0.01,0.3245 3.4053,2.0637 7.5783,3.8647 20.8125,8.9828 36.3279,21.3614 42.5274,33.9295 2.7648,5.6051 3.0982,11.8858 0.7987,15.0436 -2.0703,2.8427 -6.8672,5.0729 -10.9113,5.0729 -6.2093,0 -13.7446,-2.6445 -55.1295,-19.3475 -8.54547,-3.4489 -15.96651,-6.2708 -16.49127,-6.2708 -0.71593,0 -0.61858,0.4753 0.39009,1.9041 5.53367,7.8383 7.83599,17.4156 5.31287,22.1008 -2.70701,5.0266 -8.81924,6.6315 -17.98711,4.7228 -14.85684,-3.093 -41.00495,-16.4947 -70.41619,-36.0903 l -15.02546,-10.0109 -7.47706,0.8321 c -4.11235,0.4576 -7.73989,1.062 -8.06116,1.343 -0.32119,0.281 0.49707,1.7125 1.81834,3.1811 7.38934,8.2129 16.56863,23.5093 20.37282,33.9491 2.11149,5.7946 2.4896,7.7252 2.55254,13.0337 0.0804,6.7813 -0.58832,8.7619 -4.18922,12.4071 -1.08262,1.0959 -3.63592,2.7626 -5.6741,3.7038 -3.25275,1.5019 -4.41512,1.6739 -9.50976,1.4065 -5.20368,-0.2732 -6.4677,-0.6356 -12.21913,-3.5043 -13.1481,-6.5578 -25.58015,-18.9212 -39.46107,-39.2432 -4.25325,-6.2269 -5.03987,-7.058 -5.67852,-5.9997 -5.36875,8.8962 -13.44625,21.0413 -18.23769,27.4216 -7.691,10.2417 -21.65591,24.2584 -28.89348,29.0009 -13.99295,9.1689 -26.55121,12.7906 -35.81428,10.3287 z M 703.33611,690.9356 c 3.99852,-0.69889 9.60683,-1.99805 12.46292,-2.88702 l 5.19288,-1.61632 -7.13343,-0.54364 c -11.46076,-0.87341 -19.28311,-3.25403 -28.59326,-8.70192 -16.00876,-9.36767 -27.66194,-26.04799 -33.01068,-47.25146 -1.62883,-6.45725 -1.83683,-8.62467 -1.85988,-19.38676 -0.0277,-12.98203 0.82684,-18.89482 4.18304,-28.93914 8.19368,-24.52186 26.62634,-43.07667 49.1046,-49.42996 7.96775,-2.25202 22.5124,-2.24977 30.46492,0.005 25.02977,7.0957 44.00747,29.72826 49.16581,58.63447 1.44043,8.07188 1.45809,21.70022 0.0395,30.38715 -0.61525,3.76702 -0.99925,6.96842 -0.85343,7.11424 0.48543,0.48547 5.28622,-12.82332 6.97072,-19.32455 2.88876,-11.14873 3.51316,-16.74391 3.45839,-30.98899 -0.0457,-11.7926 -0.28298,-14.60584 -1.87733,-22.22662 -7.40118,-35.3766 -28.60081,-63.39729 -58.90995,-77.86418 -8.88232,-4.23964 -13.96075,-5.98059 -23.61183,-8.09447 -9.98453,-2.1869 -29.40446,-2.16183 -39.64331,0.0512 -32.54671,7.03456 -59.76427,28.87131 -74.6209,59.8685 -18.23312,38.04211 -15.24486,82.21354 7.88106,116.49468 16.58143,24.57979 41.14357,40.43158 69.68677,44.97408 8.44065,1.34329 22.97387,1.2169 31.5035,-0.27397 z m 9.53448,-92.15531 c 4.99209,-2.14755 9.91674,-7.60977 11.5541,-12.8153 3.43014,-10.90526 -2.16655,-22.73033 -12.62695,-26.67902 -5.04963,-1.90619 -12.24669,-1.63897 -16.93095,0.62863 -9.22893,4.46766 -14.1817,15.42661 -11.3594,25.13494 3.68598,12.67932 17.16048,18.98023 29.3632,13.73075 z"
         id="path1317" />
      <path
         style="fill:#dcbb30;fill-opacity:1;stroke-width:0.692384"
         d="m 745.26615,1204.7663 c -2.29498,-0.4508 -7.0079,-3.4588 -8.86197,-5.6561 -4.38881,-5.2014 -4.76914,-14.6303 -0.95736,-23.7355 3.01797,-7.209 8.43712,-15.2066 20.45796,-30.1919 5.57902,-6.9548 9.95711,-12.9472 9.72904,-13.3163 -0.23195,-0.3752 -4.59633,1.4214 -9.90165,4.0762 -29.68107,14.8524 -50.35602,20.8331 -58.30003,16.8645 -5.25402,-2.6246 -6.33171,-10.5937 -2.49355,-18.4387 2.344,-4.7909 10.79829,-13.5965 18.63048,-19.4046 11.80917,-8.7573 29.15534,-18.5558 43.06195,-24.3248 4.12446,-1.711 6.92384,-3.2658 6.92384,-3.8456 0,-0.5354 -2.34379,-3.1806 -5.20853,-5.8783 l -5.20846,-4.9049 -7.60065,0.8787 c -28.62581,3.3095 -59.40957,2.7681 -86.53242,-1.522 -18.91663,-2.9921 -35.86572,-9.3183 -41.41151,-15.4569 -4.5525,-5.039 -3.14938,-9.9569 4.33952,-15.2101 10.42461,-7.3124 33.12686,-14.734 63.7288,-20.8334 5.90258,-1.1765 11.433,-2.2902 12.28982,-2.4749 2.77917,-0.5992 1.66131,-2.0696 -3.42322,-4.5032 -17.14946,-8.2078 -28.44751,-18.42715 -30.39803,-27.49545 -0.4695,-2.18274 -1.11315,-4.31141 -1.43026,-4.7303 -0.31711,-0.41889 -5.32873,-2.88973 -11.13686,-5.49068 -5.80814,-2.60094 -11.57806,-5.47163 -12.822,-6.37928 -2.79757,-2.04129 -8.37404,-4.36057 -26.12602,-10.86594 -23.20921,-8.50532 -39.45767,-13.82491 -85.50948,-27.99504 -39.37217,-12.11474 -53.8716,-17.26104 -65.88572,-23.38485 -12.72291,-6.48506 -15.80361,-9.70708 -15.81108,-16.53635 -0.008,-7.4861 3.61521,-9.98017 14.5355,-10.00522 15.22491,-0.0349 40.66042,7.43892 76.14139,22.373 5.89101,2.47957 10.95407,4.35807 11.25124,4.17444 1.49562,-0.92438 -0.21734,-2.57294 -8.52775,-8.20718 -34.14051,-23.14618 -51.86188,-40.09446 -51.86188,-49.59938 0,-3.86946 1.3219,-4.7602 7.06419,-4.7602 6.62487,0 14.32038,2.68357 29.63219,10.33329 15.92172,7.95441 27.64822,14.98548 49.50549,29.68288 19.17136,12.89133 27.70777,17.63301 31.15162,17.30366 4.09677,-0.39179 2.98702,-2.17445 -8.42466,-13.53272 -13.08973,-13.02847 -20.03476,-21.44502 -23.77129,-28.80792 -3.80839,-7.50454 -3.60739,-10.60499 0.78683,-12.13683 6.76875,-2.35959 21.94056,1.2513 41.80057,9.94853 4.95055,2.16798 10.12868,4.17811 11.50701,4.46694 7.16327,1.50112 38.90183,20.73683 60.24756,36.51405 4.81117,3.55606 9.19861,6.46557 9.74988,6.46557 0.55121,0 1.96679,-1.47997 3.14564,-3.28882 7.46031,-11.44736 25.68851,-31.08545 37.55577,-40.46052 7.87352,-6.22004 7.47755,-5.76124 10.94348,-12.67999 3.85035,-7.68628 4.59314,-10.74082 3.34076,-13.73819 -1.25696,-3.00839 -4.48527,-4.23699 -13.93805,-5.30439 -10.2763,-1.1604 -30.75281,-4.5839 -46.04357,-7.69809 -47.47348,-9.66868 -82.18112,-22.35153 -108.35817,-39.59622 -33.3415,-21.96442 -52.79563,-53.39734 -59.86446,-96.72549 -1.2517,-7.67256 -1.89665,-14.30914 -3.21218,-33.05553 -0.22046,-3.1417 -0.69841,-5.71218 -1.06212,-5.71218 -0.36371,0 -3.61127,2.11524 -7.21679,4.70052 -34.45783,24.70736 -74.74367,39.98026 -115.5864,43.82033 -12.76583,1.20026 -40.95842,0.48456 -54.25324,-1.37728 -43.38107,-6.07521 -88.76189,-20.58627 -130.26909,-41.65512 -14.44709,-7.33326 -15.68639,-8.1243 -14.46558,-9.23342 0.53023,-0.48174 9.68812,-3.92866 20.35084,-7.65983 23.19142,-8.11529 43.89822,-15.80658 75.12372,-27.90376 40.08553,-15.52969 58.07493,-20.85689 82.37416,-24.39348 9.46711,-1.37787 11.03357,-1.72979 10.34769,-2.32471 -0.1587,-0.13763 -6.98734,-4.70963 -15.17478,-10.16002 -53.31707,-35.49315 -67.24556,-46.2264 -83.40076,-64.26827 -12.66489,-14.14404 -30.85646,-38.75213 -30.84649,-41.72668 0.007,-1.62694 2.64636,-1.89003 24.23726,-2.4146 37.78855,-0.91809 78.9094,2.30233 107.02984,8.38216 25.58859,5.53241 42.71825,12.72499 63.79243,26.78574 24.96468,16.65654 48.49613,42.24044 62.21697,67.64359 1.46461,2.71158 2.88074,4.93016 3.14703,4.93016 0.26629,0 0.85087,-2.25891 1.29905,-5.01979 2.75112,-16.94597 9.48609,-47.26109 14.95925,-67.3344 17.79192,-65.25257 40.33686,-111.01643 74.38009,-150.98342 8.02398,-9.42018 27.70439,-29.13403 37.36959,-37.43302 9.68334,-8.31456 22.24299,-18.24102 31.1573,-24.62497 41.75591,-29.90332 100.97237,-47.90878 169.28801,-51.47397 49.35199,-2.57553 93.67708,0.16988 135.20367,8.37424 6.57759,1.29952 12.94122,2.8706 14.14147,3.49128 1.20032,0.62068 7.65841,2.66714 14.35151,4.54769 21.7617,6.11444 46.6706,15.19446 71.0217,25.88949 9.2659,4.06958 42.3871,20.53801 44.3126,22.03296 1.2944,1.00491 1.3016,1.07658 0.1115,1.09716 -0.7003,0.0121 -5.0623,-0.67903 -9.6934,-1.53585 -7.5441,-1.3958 -10.5809,-1.55683 -29.1916,-1.54798 -18.4988,0.009 -21.7185,0.18055 -29.4263,1.56973 -28.9592,5.2193 -52.153,16.26392 -78.58569,37.42157 -14.00991,11.21404 -38.28007,36.03501 -40.73706,41.66162 -0.41578,0.95202 -2.03838,3.44461 -3.60587,5.53907 -18.7137,25.00486 -35.57827,55.92867 -55.50468,101.77633 -15.75334,36.24624 -27.34857,71.71396 -36.89731,112.86287 -8.51044,36.67408 -8.76919,37.63669 -17.09719,63.59819 -3.77564,11.77015 -4.36541,14.23487 -3.57873,14.95538 0.51805,0.47447 2.8959,1.57308 5.28407,2.44135 2.38811,0.86827 4.52377,1.87265 4.74582,2.23196 0.2523,0.40816 -3.97491,0.43937 -11.26593,0.0832 -22.25864,-1.08741 -32.76495,-0.40244 -45.94276,2.99532 -14.08663,3.63209 -24.79519,10.97684 -28.70432,19.68764 -5.39665,12.02537 1.00963,25.07382 22.5772,45.98538 19.67348,19.07514 67.0931,54.54315 91.05126,68.10285 22.70461,12.8502 47.89738,21.07841 75.70909,24.72738 15.74274,2.0655 35.59403,0.669 51.23645,-3.60437 8.05672,-2.20104 21.42025,-6.79726 28.31835,-9.73979 19.1531,-8.17013 49.1028,-25.16731 48.3452,-27.43712 -0.2039,-0.61131 -12.6009,-0.82014 -50.0648,-0.84337 -32.53602,-0.0201 -53.39313,-0.32158 -60.1794,-0.86966 -48.2027,-3.89301 -73.75123,-9.96604 -101.58287,-24.14681 -23.60463,-12.02706 -44.42436,-30.8708 -54.28883,-49.13635 -3.50699,-6.49363 -4.31577,-7.346 -6.46216,-6.8106 -2.71823,0.67802 -6.11119,3.5778 -8.54839,7.30586 -1.21762,1.86259 -2.48718,3.39213 -2.82126,3.39897 -1.3311,0.0273 0.10511,-6.98128 2.08775,-10.18814 3.58558,-5.79953 9.88891,-7.89645 19.33595,-6.43246 5.1217,0.79371 12.39008,3.92108 14.47983,6.23024 1.25031,1.38151 1.23453,1.40163 -1.08891,1.38971 -1.2967,-0.007 -5.12662,-0.46592 -8.51107,-1.02062 -3.38444,-0.55469 -6.42228,-0.84244 -6.75075,-0.63943 -1.41585,0.87503 -0.30014,3.30388 4.15604,9.04728 17.38605,22.40823 44.67653,41.27023 75.00484,51.84014 14.06233,4.90096 25.44349,5.57511 110.64763,6.55419 54.0702,0.62131 71.0802,1.19168 83.0861,2.786 11.3292,1.50445 15.0251,2.93066 13.2226,5.10249 -0.4371,0.52668 -2.8121,2.13737 -5.2777,3.57931 -2.4656,1.44195 -4.4829,2.89157 -4.4829,3.22138 0,1.33739 -17.7627,12.08551 -31.2867,18.93141 -7.9259,4.01213 -14.4107,7.39282 -14.4107,7.51262 0,0.1198 1.5287,3.14466 3.3972,6.72192 7.72,14.78043 12.9937,38.34125 13.7106,61.2526 0.838,26.78854 -3.6789,54.2979 -13.8615,84.42078 -9.7738,28.91333 -24.0668,55.24793 -40.93142,75.41563 -2.52263,3.0166 -4.47536,5.8208 -4.33945,6.2314 0.1569,0.474 4.65262,0.8995 12.30797,1.1651 22.5795,0.7833 41.6453,6.323 49.8612,14.4874 4.386,4.3585 4.8462,8.1885 1.4442,12.0204 -2.9909,3.3688 -13.0023,6.4697 -25.3424,7.8496 -2.6357,0.2946 -4.9096,0.8923 -5.0531,1.328 -0.1475,0.4481 1.9342,1.6164 4.7922,2.6895 7.4314,2.7901 20.5293,9.4413 26.4195,13.4159 15.2826,10.3126 24.0041,21.6175 23.9746,31.076 -0.022,6.7431 -3.6065,9.8405 -11.3909,9.8405 -2.7307,0 -6.6572,-0.4939 -8.7255,-1.0975 -2.0684,-0.6036 -17.3838,-6.5235 -34.0342,-13.1553 -16.6505,-6.6318 -30.43756,-12.0578 -30.638,-12.0578 -0.9798,0 -0.14637,2.491 1.76094,5.2632 5.63317,8.1875 7.50115,17.0751 4.45085,21.1768 -3.57125,4.8023 -11.9894,5.2623 -23.90256,1.3061 -16.2664,-5.4017 -50.19359,-24.4767 -74.43295,-41.8487 l -3.4802,-2.4941 -6.21318,0.7444 c -8.30543,0.9951 -10.90804,1.5489 -11.1852,2.3803 -0.1274,0.3823 1.45505,2.7272 3.51662,5.2108 8.72758,10.5147 18.50788,27.9487 20.80992,37.0951 1.3282,5.277 1.38262,12.7192 0.11472,15.674 -2.85693,6.6582 -11.54373,10.4575 -20.23634,8.8505 -14.40665,-2.6632 -30.97084,-17.2047 -48.34298,-42.4397 -2.55081,-3.7054 -4.93109,-6.9183 -5.28947,-7.1398 -0.35831,-0.2215 -1.81848,1.5099 -3.24472,3.8474 -19.35935,31.7284 -35.997,49.6732 -54.86995,59.1806 -3.2378,1.6311 -7.28825,3.3674 -9.001,3.8583 -1.71275,0.4911 -3.42564,1.1115 -3.80645,1.3786 -0.94517,0.6631 -7.92067,1.2633 -9.9801,0.8588 z M 703.82687,693.15979 c 6.77173,-1.11892 17.0508,-3.94664 19.82428,-5.45359 1.67924,-0.91238 1.24713,-0.99245 -5.49338,-1.01799 -18.35476,-0.0696 -32.122,-5.77978 -45.0117,-18.66949 -11.03724,-11.03724 -18.1672,-25.37491 -21.15491,-42.54032 -1.63555,-9.39682 -0.98679,-26.09624 1.37902,-35.49671 5.92169,-23.52965 20.777,-42.68221 40.25385,-51.89814 8.52768,-4.03507 13.12983,-5.1639 22.89418,-5.61553 16.39822,-0.75847 29.75494,3.98675 42.69284,15.16737 15.20525,13.14004 25.39694,36.99963 25.44915,59.57853 0.0138,5.86159 -1.5085,17.20474 -3.16842,23.61311 -0.57814,2.23179 -0.88037,4.22851 -0.67175,4.43715 0.59012,0.59009 5.01168,-9.43328 7.63554,-17.30914 4.00545,-12.02295 5.27874,-19.52389 5.70947,-33.63338 0.25349,-8.30263 0.0927,-14.87088 -0.46604,-19.04057 -6.36924,-47.53137 -38.67812,-84.40468 -83.02182,-94.7506 -8.84445,-2.06351 -27.88384,-2.53924 -37.5271,-0.93767 -33.87872,5.62668 -62.79069,27.71666 -78.84694,60.24257 -14.27448,28.91641 -16.4242,59.86411 -6.28111,90.42492 5.70539,17.19012 13.98527,30.56799 26.987,43.60316 24.46832,24.53117 55.56995,34.78998 88.81784,29.29632 z m 9.33431,-92.36493 c 4.24196,-1.85497 9.47445,-7.05525 11.33627,-11.2664 1.22414,-2.76878 1.60038,-4.90057 1.61471,-9.149 0.0166,-4.99595 -0.21152,-5.96688 -2.32938,-9.90206 -4.13423,-7.68196 -10.64327,-11.55277 -19.42679,-11.55277 -10.75896,0 -18.887,6.63042 -21.44349,17.49233 -1.9168,8.14431 2.4993,18.35556 9.92242,22.9433 5.73689,3.54557 14.14237,4.13881 20.32626,1.4346 z M 1037.393,462.93616 c -15.1213,-13.84256 -29.3016,-24.94079 -33.9731,-26.58899 -1.5582,-0.54976 -4.68353,-1.98584 -6.94521,-3.1913 -8.82001,-4.70101 -11.40821,-10.7271 -6.6507,-15.48463 5.41002,-5.40997 17.46041,-4.9551 26.75621,1.00996 4.3445,2.7879 11.4735,10.39442 14.4639,15.43304 3.7397,6.30087 6.9979,14.51013 9.1658,23.0939 1.1164,4.42037 2.0297,8.31537 2.0297,8.65555 0,1.17987 -1.0578,0.54086 -4.8466,-2.92753 z"
         id="path1305" />
      <path
         style="fill:#28a745;fill-opacity:1;stroke-width:0.692384"
         d="m 792.0334,1092.8212 c -7.11647,-0.6208 -24.70954,-2.7637 -26.17033,-3.1878 -0.49409,-0.1434 -1.23224,-1.1216 -1.6404,-2.1738 -0.40809,-1.0523 -3.06913,-4.0589 -5.91338,-6.6813 l -5.17142,-4.768 -4.2664,0.4144 c -2.34649,0.2279 -7.53792,0.7935 -11.53645,1.257 -10.10687,1.1714 -50.61233,1.1894 -61.62222,0.027 -32.18002,-3.3964 -58.48128,-12.6199 -60.65232,-21.27 -2.61597,-10.4227 22.93856,-21.9022 69.30713,-31.1337 6.85461,-1.3646 13.16396,-2.6291 14.02079,-2.8099 0.97771,-0.2062 1.55786,-0.8371 1.55786,-1.6939 0,-1.0379 -1.69267,-2.2147 -7.05782,-4.9071 -17.63586,-8.8501 -28.87451,-19.464 -28.93094,-27.3227 -0.008,-1.1648 -0.4047,-2.59492 -0.88071,-3.17798 -0.47602,-0.58305 -5.85065,-3.31624 -11.94364,-6.07373 -6.09298,-2.75756 -11.77088,-5.45751 -12.61753,-5.99993 -3.69871,-2.36982 -12.84248,-18.30457 -14.19,-24.72886 -1.60931,-7.67224 0.9575,-11.74962 11.49871,-18.26621 3.46933,-2.14471 7.4873,-4.84606 8.92885,-6.003 3.17652,-2.54895 6.72617,-7.73597 6.72617,-9.82843 0,-3.78505 -3.15091,-8.9181 -15.54507,-25.32429 -8.50719,-11.26088 -11.45793,-16.47199 -11.45793,-20.23502 0,-2.12257 0.23784,-2.52727 1.4851,-2.52727 4.58663,0 40.80879,22.11296 60.34428,36.83909 4.49323,3.3871 8.56882,6.31156 9.05674,6.4988 0.51617,0.19805 1.90835,-1.19741 3.3285,-3.33639 8.24,-12.41031 26.37445,-31.86819 38.88708,-41.7251 6.68927,-5.26947 6.88611,-5.50814 10.2144,-12.38357 1.86653,-3.85581 3.58233,-8.42669 3.81283,-10.15752 0.3635,-2.72926 0.17649,-3.43537 -1.40914,-5.31976 -2.30398,-2.73813 -4.16186,-3.31007 -15.28446,-4.70517 -31.0216,-3.89104 -69.85377,-12.25669 -95.06626,-20.48019 -36.27984,-11.83332 -60.58884,-25.50966 -79.76083,-44.87377 -14.40727,-14.55164 -23.93351,-30.32255 -30.74838,-50.90462 -5.55728,-16.78389 -9.38195,-41.09328 -9.40279,-59.76359 -0.009,-7.9427 -0.33331,-8.0363 -8.01601,-2.31237 -19.02686,14.17567 -44.11555,27.01626 -67.64209,34.61964 -45.52109,14.71169 -90.13973,14.81152 -146.60445,0.32801 -15.21958,-3.90391 -41.15658,-12.56067 -56.08315,-18.71838 -13.00291,-5.36413 -46.05458,-21.69883 -46.02196,-22.7448 0.0118,-0.38081 4.37393,-2.21426 9.69338,-4.07434 30.29881,-10.59465 51.97308,-18.66478 98.297,-36.59954 26.48896,-10.25547 53.06144,-17.60033 72.00798,-19.90364 9.15125,-1.1125 9.76526,-1.28274 8.5898,-2.38151 -0.5355,-0.50051 -9.69761,-6.75086 -20.36033,-13.88968 -27.89437,-18.67561 -49.42206,-33.82935 -56.69051,-39.90548 -8.96271,-7.49243 -23.76616,-22.89823 -32.51631,-33.83944 -8.53973,-10.67806 -20.04419,-27.43851 -19.64974,-28.62698 0.51749,-1.55905 10.23684,-1.92874 42.38765,-1.61225 40.28687,0.39657 60.01485,2.1097 86.04144,7.47161 19.79887,4.07889 33.10152,8.61138 47.93496,16.3325 17.82661,9.27913 31.85266,19.61495 46.78594,34.47669 14.3559,14.28707 24.08875,26.89379 32.87469,42.58165 2.02606,3.61771 3.78146,6.70748 3.90083,6.86615 0.56526,0.75135 1.05381,-1.14662 2.67523,-10.39433 5.24482,-29.91249 14.65079,-67.20037 24.17322,-95.829 24.78515,-74.51554 62.28809,-126.58925 125.59516,-174.39186 36.67381,-27.69204 81.49892,-44.9684 137.53636,-53.00883 45.06329,-6.46582 103.57043,-6.21053 150.33096,0.65598 21.00418,3.08434 35.72524,6.20802 37.70643,8.00094 0.6237,0.56446 6.55273,2.55063 13.1755,4.41372 31.8077,8.94788 62.6108,21.0251 95.8201,37.56892 13.3539,6.6525 19.3966,10.03844 15.4227,8.64192 -0.6569,-0.23087 -5.1747,-1.18836 -10.0396,-2.12776 -36.6694,-7.0809 -64.7265,-5.52904 -86.3404,4.77558 -7.0759,3.37351 -20.96407,11.45247 -29.42965,17.11962 -54.36963,36.39718 -96.03111,91.46095 -125.98838,166.51812 -15.27705,38.27629 -27.92151,80.24908 -40.9373,135.88921 -2.71699,11.61475 -6.01384,24.35866 -7.32633,28.3198 -2.72986,8.23868 -7.14388,17.99499 -9.59596,21.2098 -1.59768,2.09472 -1.95564,2.21536 -7.90641,2.66458 -14.46315,1.09182 -30.62507,4.65106 -41.43049,9.12398 -28.80271,11.92291 -34.68188,32.72474 -16.23385,57.43896 4.95816,6.64231 19.18029,20.66613 29.19204,28.78494 3.99852,3.24252 12.54711,10.19725 18.99688,15.45496 6.44977,5.25771 15.3296,12.27274 19.73296,15.58896 38.90314,29.29831 74.71652,46.26494 107.01711,50.69945 8.24042,1.13132 38.18418,1.13012 47.08215,-0.002 17.37096,-2.20997 37.48663,-7.80624 53.68683,-14.93594 3.962,-1.74368 7.5693,-3.17032 8.0161,-3.17032 0.4469,0 2.0628,2.57048 3.5909,5.71217 7.479,15.37615 13.3048,44.00732 13.2785,65.25724 -0.021,16.55651 -3.7726,44.93141 -6.8749,51.9909 -2.9848,6.79222 -20.6935,31.31142 -33.0273,45.72936 -8.84276,10.3368 -28.87005,30.0485 -38.02864,37.4292 -37.0794,29.8818 -75.4,46.5355 -120.91244,52.547 -9.76497,1.2899 -41.38894,1.8902 -51.78662,0.9831 z M 696.11011,695.3581 c 3.41186,-0.39084 8.55281,-1.18981 11.42434,-1.77548 5.54441,-1.13082 18.60396,-5.41572 19.62841,-6.44016 0.35256,-0.35258 -3.87929,-0.59695 -10.01417,-0.57826 -12.04562,0.0367 -17.77205,-1.10677 -26.68193,-5.32788 -32.67591,-15.48048 -48.52452,-57.69677 -36.16816,-96.342 4.13076,-12.91924 9.78291,-22.47782 18.91781,-31.99302 13.38719,-13.94434 30.37941,-20.98963 48.19377,-19.98197 8.67426,0.49065 13.61283,1.72566 21.35556,5.34046 7.75464,3.62035 13.35395,7.73454 19.68297,14.4623 8.75375,9.3053 14.66637,20.21393 18.34376,33.84387 1.66138,6.15781 1.80955,7.834 1.8459,20.88892 0.0374,13.34946 -0.0768,14.65596 -1.91542,21.9609 -2.67212,10.61615 -2.0955,11.77368 1.80221,3.61801 15.74524,-32.94584 15.78962,-71.52678 0.11992,-104.26894 -9.90442,-20.69546 -28.71055,-40.00681 -48.79351,-50.10432 -22.67725,-11.40189 -50.36668,-13.81165 -74.63912,-6.4957 -36.43196,10.98095 -65.2634,41.75539 -75.18125,80.24784 -12.04202,46.73628 4.47128,95.89241 41.38423,123.19081 13.45116,9.9476 29.86331,16.82556 45.45068,19.04736 10.98198,1.56535 16.42274,1.71778 25.244,0.70726 z m 16.64527,-94.18674 c 4.85347,-2.2831 9.60157,-7.35927 11.43936,-12.22977 3.12501,-8.28182 0.78157,-18.26211 -5.65311,-24.07545 -4.26107,-3.84964 -7.94276,-5.37988 -13.74868,-5.71445 -4.13429,-0.23823 -5.98995,10e-4 -9.10284,1.17638 -13.64012,5.14777 -18.4965,21.00937 -10.24605,33.46523 5.58997,8.43935 17.9545,11.77957 27.31132,7.37806 z"
         id="path1295" />
      <path
         style="fill:#005000;fill-opacity:1;stroke-width:0.692384"
         d="m 657.74889,986.74046 c -1.90406,-0.99724 -6.26608,-3.03306 -9.69338,-4.52411 -7.41655,-3.22651 -7.85788,-3.58884 -12.21664,-10.03092 -7.25633,-10.72448 -10.34271,-19.06419 -8.95821,-24.20583 0.90813,-3.37254 3.66915,-6.00263 11.13527,-10.60706 7.70811,-4.75363 11.30283,-7.71641 13.84457,-11.41069 4.27209,-6.20931 2.75632,-10.05114 -11.33862,-28.73853 -9.42689,-12.49844 -13.96858,-20.16224 -13.42485,-22.65364 0.14803,-0.67854 0.56228,-1.17567 0.92045,-1.10484 1.28715,0.25445 18.12261,9.53683 25.92329,14.29303 11.09727,6.76605 20.94685,13.4047 31.68837,21.35798 l 9.18586,6.80144 -1.69766,3.35017 c -2.547,5.02622 -4.55734,11.48983 -4.55734,14.65265 0,5.3988 3.17514,9.87215 8.62233,12.14761 l 2.737,1.14333 -4.66065,1.98825 c -16.64049,7.09881 -28.23205,20.07714 -31.65111,35.43756 -0.48737,2.18966 -1.22601,3.96667 -1.64144,3.94894 -0.41543,-0.018 -2.31318,-0.8481 -4.21724,-1.84534 z M 360.71594,704.67458 c -38.73857,-2.60101 -82.80088,-13.94151 -125.14857,-32.21001 -13.6048,-5.86904 -37.90798,-18.21294 -37.90798,-19.25399 0,-0.44208 5.21885,-2.60673 11.59744,-4.81032 19.76654,-6.82868 50.48224,-18.12375 72.00688,-26.47904 40.89451,-15.87418 53.06275,-20.03692 71.48981,-24.45648 9.36803,-2.24684 21.80554,-4.48224 29.25324,-5.2577 2.57048,-0.26764 4.6736,-0.74428 4.6736,-1.0592 0,-0.31492 -9.89245,-7.22664 -21.98321,-15.35937 -29.35364,-19.74447 -46.13559,-31.5103 -54.22569,-38.01774 -12.16443,-9.7847 -27.13981,-25.51749 -38.50557,-40.45304 -6.24801,-8.2104 -15.45382,-21.85136 -15.45382,-22.8991 0,-0.49952 0.85683,-1.13842 1.90406,-1.41979 3.18434,-0.85556 61.88865,-0.57026 73.91204,0.35921 54.70482,4.22893 86.11131,12.95369 115.26596,32.02101 12.09665,7.91129 19.1022,13.5334 29.70503,23.83901 14.41586,14.01168 27.18149,30.53684 35.43651,45.87265 1.69094,3.14128 3.38597,5.6081 3.76678,5.48182 0.38081,-0.12628 0.94926,-1.91749 1.26326,-3.98046 2.5657,-16.85863 11.06977,-54.33249 17.50659,-77.14363 25.53957,-90.50934 64.48129,-148.45969 134.93951,-200.80755 13.13495,-9.7588 21.46163,-14.94099 34.96542,-21.76114 37.16533,-18.77048 82.55016,-29.95563 138.1307,-34.04253 14.48171,-1.06485 53.52195,-1.05959 68.89228,0.009 31.81202,2.21227 78.93184,9.23654 78.93184,11.76658 0,0.30886 -8.95773,0.75314 -19.90606,0.98729 -10.94833,0.23414 -23.9565,0.76103 -28.90705,1.17084 -78.5948,6.50625 -148.6457,26.32353 -199.06057,56.31391 -70.67535,42.04274 -135.02529,112.96295 -187.31714,206.44246 -7.28707,13.0268 -21.1518,40.62418 -26.56825,52.8835 -3.94486,8.92845 -4.49572,10.74437 -5.33946,17.59967 -1.83406,14.90134 -3.05044,31.50623 -3.49274,47.67971 l -0.44804,16.38235 -5.60326,4.11298 c -38.23499,28.06578 -80.12066,43.52354 -126.06632,46.52427 -12.16146,0.7943 -15.41082,0.79015 -27.70722,-0.0353 z m 342.6201,-13.73884 c -25.35644,-5.95936 -45.38726,-29.02897 -50.45932,-58.11425 -1.31117,-7.51892 -1.30175,-23.17828 0.0187,-30.74938 6.74729,-38.69177 38.73109,-66.4285 72.36111,-62.75239 24.91241,2.72319 45.09569,20.27639 54.4667,47.36914 2.29276,6.62874 4.38681,19.31784 4.38189,26.55251 -0.008,11.14916 -4.20201,31.39986 -8.1243,39.22402 -7.54256,15.04595 -19.39833,27.27532 -33.07368,34.11587 -8.52603,4.26481 -11.83929,5.02097 -23.53588,5.37117 -8.58938,0.25722 -11.36286,0.0814 -16.03507,-1.01669 z m 8.07265,-82.57924 c 9.25212,-2.70414 15.41898,-11.18806 15.5171,-21.34733 0.0436,-4.55028 -0.23895,-5.80651 -2.2085,-9.80724 -6.25854,-12.71287 -21.43983,-16.68221 -33.09204,-8.65229 -10.9477,7.54445 -12.82033,23.18436 -3.95642,33.04317 6.25812,6.96057 14.76946,9.38551 23.73986,6.76369 z"
         id="path1283" />
      <circle
         id="path1401"
         style="fill:#000000;stroke:#000000;stroke-width:0.692384"
         cx="987.02075"
         cy="734.94727"
         r="1.2063898" />
    </g>
  </g>
</svg>
